<?xml version="1.0" encoding="UTF-8"?>
<svg version="1.1" xmlns="http://www.w3.org/2000/svg" width="726" height="655">
<path d="M0 0 C0.94697754 0.18191895 1.89395508 0.36383789 2.86962891 0.55126953 C38.71011099 7.45292148 72.90064399 23.03321104 102 45 C103.18916016 45.88751953 103.18916016 45.88751953 104.40234375 46.79296875 C106.63385138 48.49181995 108.82117916 50.23408599 111 52 C111.93714844 52.75152344 112.87429688 53.50304687 113.83984375 54.27734375 C127.15554314 65.13843966 139.54900744 77.34725828 150 91 C151.17369141 92.46566406 151.17369141 92.46566406 152.37109375 93.9609375 C159.21966429 102.56268827 165.24078579 111.63992117 171 121 C171.3904248 121.63212402 171.78084961 122.26424805 172.18310547 122.91552734 C183.81865851 142.0018727 193.01266363 163.41472825 198.0625 185.1875 C198.31999023 186.28537842 198.57748047 187.38325684 198.84277344 188.5144043 C213.2932184 250.80790989 206.29510262 315.30038395 176 372 C175.65356445 372.65419922 175.30712891 373.30839844 174.95019531 373.98242188 C163.98902578 394.54088257 150.15731741 413.10423488 133.75390625 429.64453125 C131.2517849 432.41205772 129.58378194 435.42484927 127.82788086 438.7097168 C127.29585556 439.70037643 126.76383026 440.69103607 126.21568298 441.7117157 C125.61391991 442.84441643 125.61391991 442.84441643 125 444 C125.66667191 444.01839432 126.33334381 444.03678864 127.0202179 444.05574036 C133.44312442 444.23498093 139.86560628 444.42534402 146.28785419 444.62686634 C149.58607905 444.73000382 152.88426493 444.82826114 156.18286133 444.91918945 C180.89410845 445.60495612 205.14849898 447.43276549 229.3125 452.8125 C230.93789956 453.16463504 232.56338935 453.51635383 234.18896484 453.86767578 C266.04069259 460.82031371 266.04069259 460.82031371 274 465 C271.07972184 466.94685211 268.90446276 467.76966035 265.57421875 468.76953125 C264.47932129 469.09856445 263.38442383 469.42759766 262.25634766 469.76660156 C239.31403187 476.4901534 216.78982416 481.31918083 193 484 C192.29843277 484.08644775 191.59686554 484.17289551 190.8740387 484.26196289 C180.96586344 485.34173081 171.00494132 485.21551496 161.05078125 485.28125 C158.80829156 485.29903308 156.56580403 485.31708994 154.32331848 485.33538818 C149.33692196 485.37487354 144.35051387 485.41079715 139.36407471 485.44445801 C133.96572673 485.48097766 128.5674244 485.52084585 123.16912842 485.56433105 C82.01662259 485.89440229 40.864545 486.03153225 -0.28915218 486.08713865 C-11.17690424 486.10190005 -22.06463967 486.12127162 -32.95237732 486.14428711 C-33.67505731 486.14580229 -34.39773731 486.14731748 -35.14231669 486.14887857 C-41.74014237 486.1627156 -48.33796766 486.1767162 -54.93579137 486.19146347 C-71.90849639 486.22931177 -88.88108024 486.25437672 -105.85383026 486.25243267 C-117.90690228 486.25133607 -129.95984696 486.26804406 -142.01287192 486.30199742 C-148.66735402 486.32016442 -155.32163992 486.32899036 -161.97615623 486.31658173 C-168.14899253 486.30520346 -174.32134841 486.31672927 -180.49412024 486.34632206 C-182.7474116 486.3529929 -185.00074691 486.35111391 -187.25402105 486.34006405 C-190.31925074 486.32625324 -193.38283964 486.34300113 -196.44796753 486.36749268 C-197.33651749 486.35613714 -198.22506745 486.3447816 -199.14054316 486.33308196 C-205.14019757 486.42663354 -207.79384304 487.6932482 -212 492 C-212.66 491.67 -213.32 491.34 -214 491 C-212.2697626 500.14554052 -209.36030398 511.56139696 -201.8972168 517.74121094 C-199.24697 520.89654273 -199.62138845 522.88730623 -199.828125 526.953125 C-199.85598083 527.61334656 -199.88383667 528.27356812 -199.91253662 528.95379639 C-200.00560588 531.05397841 -200.12737078 533.15135714 -200.25 535.25 C-200.31830664 536.67699363 -200.38473417 538.10407854 -200.44921875 539.53125 C-200.61105425 543.02215461 -200.79864577 546.51112632 -201 550 C-205.35972367 548.05814734 -207.79000493 544.99832506 -210.6875 541.3125 C-211.21569336 540.64404053 -211.74388672 539.97558105 -212.28808594 539.28686523 C-217.50920903 532.54725761 -221.9276976 525.48070412 -226 518 C-226.54164795 517.00734131 -226.54164795 517.00734131 -227.09423828 515.99462891 C-230.79824966 509.11575062 -234.01494766 502.51170845 -236.0625 494.9375 C-237.67699925 489.06393712 -240.20710194 485.70237912 -245 482 C-245.99 482.33 -246.98 482.66 -248 483 C-262.13902355 484.34366531 -262.13902355 484.34366531 -266.1640625 481.4375 C-267.5 479.5 -267.5 479.5 -269 476 C-269.40605469 476.5053125 -269.81210937 477.010625 -270.23046875 477.53125 C-275.73270348 483.06643224 -281.114928 483.86531342 -288.625 484 C-293.75076207 483.9787276 -297.63584376 483.94961345 -301.91796875 480.96875 C-303.65770313 478.70171468 -304.93445044 476.64550235 -306 474 C-306.44730469 474.39832031 -306.89460938 474.79664063 -307.35546875 475.20703125 C-307.96003906 475.73683594 -308.56460938 476.26664063 -309.1875 476.8125 C-309.77917969 477.33457031 -310.37085938 477.85664062 -310.98046875 478.39453125 C-316.46926637 482.75796611 -320.19415282 483.47478228 -327.0625 483.375 C-327.86494141 483.38660156 -328.66738281 483.39820313 -329.49414062 483.41015625 C-333.1416551 483.39199435 -335.37534741 483.37193055 -338.55859375 481.4765625 C-339.03425781 480.98929688 -339.50992188 480.50203125 -340 480 C-340.185625 480.680625 -340.37125 481.36125 -340.5625 482.0625 C-344.07740416 489.24513023 -350.72920223 493.99861468 -358 497 C-367.17509 499.89739684 -376.45674136 499.28753473 -385.25 495.3125 C-394.2869686 490.17530208 -400.30621348 483.01605565 -403.64453125 473.08203125 C-405.29399014 463.42091487 -404.72041445 453.05305525 -399.5234375 444.59765625 C-393.17102035 435.88121172 -385.50196066 430.59978607 -375 428 C-366.77287443 426.8889011 -359.12782041 428.77097698 -351.875 432.6875 C-346.64101471 436.89744469 -341.93309732 441.5448062 -338 447 C-337.484375 446.525625 -336.96875 446.05125 -336.4375 445.5625 C-333.21506513 443.49683662 -330.8190784 443.30799019 -327 443 C-326.20980469 442.90074219 -325.41960937 442.80148437 -324.60546875 442.69921875 C-320.7222849 442.39500619 -318.0729819 442.28592494 -314.7578125 444.4921875 C-313.39514151 445.73144677 -312.06150728 447.00353224 -310.76171875 448.30859375 C-308.70162985 450.28646181 -306.74193868 451.22882975 -304 452 C-303.7525 451.071875 -303.505 450.14375 -303.25 449.1875 C-301.93473367 445.83357085 -301.16736868 444.63167477 -298 443 C-297.01 443.33 -296.02 443.66 -295 444 C-292.97667045 443.68216983 -290.95612388 443.34646226 -288.9375 443 C-284.64963897 442.58798207 -282.69564109 442.55574038 -279.02734375 444.8984375 C-277.3038944 446.50766709 -275.63097291 448.17340781 -274.0234375 449.8984375 C-272.09571758 452.22591096 -272.09571758 452.22591096 -269 453 C-268.566875 452.071875 -268.13375 451.14375 -267.6875 450.1875 C-265.32258065 445.72043011 -265.32258065 445.72043011 -263 444 C-260.0390625 443.56640625 -260.0390625 443.56640625 -256.625 443.5625 C-254.94277344 443.53349609 -254.94277344 443.53349609 -253.2265625 443.50390625 C-249.42118774 444.08899414 -247.762185 445.3878213 -245 448 C-242.49034034 447.65642281 -242.49034034 447.65642281 -240 446 C-238.71586152 443.16881013 -238.195056 440.23179067 -237.625 437.1875 C-237.44839844 436.37990234 -237.27179688 435.57230469 -237.08984375 434.74023438 C-235.85514818 428.83120129 -235.85514818 428.83120129 -237 423 C-238.51236417 421.14413827 -238.51236417 421.14413827 -240.4375 419.6875 C-241.05496094 419.17574219 -241.67242187 418.66398437 -242.30859375 418.13671875 C-243.93701221 416.81406908 -243.93701221 416.81406908 -246 417 C-257.42102473 404.92634529 -266.85337289 390.42168079 -275 376 C-275.34659668 375.39188477 -275.69319336 374.78376953 -276.05029297 374.15722656 C-292.58269665 344.94402664 -301.54189266 312.08719902 -306 279 C-306.16012573 277.84504028 -306.16012573 277.84504028 -306.32348633 276.66674805 C-307.25201923 268.93173001 -307.18608508 261.15019706 -307.18530273 253.37133789 C-307.18747357 250.96677512 -307.20564154 248.56268424 -307.22460938 246.15820312 C-307.41152541 194.71014258 -289.58841652 142.21001109 -259 101 C-258.34547852 100.11223877 -258.34547852 100.11223877 -257.67773438 99.20654297 C-250.46114044 89.50156053 -242.39577848 80.68984729 -234 72 C-233.12722412 71.08637695 -233.12722412 71.08637695 -232.23681641 70.15429688 C-224.57804085 62.15546399 -216.65411195 54.93281054 -207.76660156 48.32226562 C-206.00178942 47.00133935 -204.26193514 45.65218163 -202.5234375 44.296875 C-192.30991392 36.4403184 -181.35793039 30.05632225 -170 24 C-168.75935791 23.33653564 -168.75935791 23.33653564 -167.49365234 22.65966797 C-145.8032844 11.25483015 -121.89575911 3.57560898 -97.76367188 -0.52832031 C-95.99365612 -0.83041134 -94.2262685 -1.14861125 -92.46289062 -1.48730469 C-62.82122313 -7.15168953 -29.45886448 -6.10861102 0 0 Z " fill="#0A0908" transform="translate(416,62)"/>
<path d="M0 0 C38.96647535 34.92861617 59.51817745 83.22447798 62.65625 135.08984375 C64.83856119 177.72285155 54.9129465 228.31655678 26.2734375 261.31640625 C25.73976563 261.90164063 25.20609375 262.486875 24.65625 263.08984375 C23.33841523 260.4541742 23.89698677 259.41103319 24.6171875 256.58203125 C24.84148437 255.67710937 25.06578125 254.7721875 25.296875 253.83984375 C25.53921875 252.89109375 25.7815625 251.94234375 26.03125 250.96484375 C26.50163661 249.10914272 26.96784981 247.25237834 27.4296875 245.39453125 C27.64028809 244.56937012 27.85088867 243.74420898 28.06787109 242.89404297 C32.18692237 223.26274714 31.64942592 198.54329422 26.65625 179.08984375 C26.47884277 178.33380859 26.30143555 177.57777344 26.11865234 176.79882812 C21.54966437 157.65480727 12.52896559 139.04939301 -0.34375 124.08984375 C-1.45169922 122.79433594 -1.45169922 122.79433594 -2.58203125 121.47265625 C-4.78960175 118.9638801 -7.05016544 116.51999901 -9.34375 114.08984375 C-10.02824219 113.34089844 -10.71273438 112.59195313 -11.41796875 111.8203125 C-34.51075591 87.44696413 -65.84997946 78.04272171 -97.34375 70.08984375 C-93.3630954 75.42702195 -89.41657933 80.2605736 -84.40625 84.65234375 C-83.44847656 85.49925781 -82.49070312 86.34617187 -81.50390625 87.21875 C-80.79105469 87.83621094 -80.07820312 88.45367187 -79.34375 89.08984375 C-81.34375 90.08984375 -81.34375 90.08984375 -84.21484375 89.234375 C-85.39175781 88.79480469 -86.56867188 88.35523438 -87.78125 87.90234375 C-88.40870117 87.67184326 -89.03615234 87.44134277 -89.68261719 87.20385742 C-92.58461063 86.13569097 -95.47545614 85.03941035 -98.36328125 83.93359375 C-99.26433594 83.59328125 -100.16539062 83.25296875 -101.09375 82.90234375 C-101.87234375 82.59941406 -102.6509375 82.29648438 -103.453125 81.984375 C-111.99292749 79.34165234 -120.06179217 78.82415061 -128.96875 78.96484375 C-130.06832031 78.97386719 -131.16789063 78.98289062 -132.30078125 78.9921875 C-134.98200758 79.01550251 -137.66275607 79.04822335 -140.34375 79.08984375 C-135.55222643 80.69371034 -130.75660292 82.28383211 -125.953125 83.8515625 C-115.31991875 87.33827555 -104.80854642 90.99710787 -94.38793945 95.07543945 C-86.20990927 98.23172209 -77.8871099 100.88288611 -69.51586914 103.4765625 C-68.50903076 103.78980469 -67.50219238 104.10304688 -66.46484375 104.42578125 C-65.5720874 104.6995459 -64.67933105 104.97331055 -63.75952148 105.25537109 C-61.49795212 106.03657818 -59.45227277 106.96525742 -57.34375 108.08984375 C-58.90395867 108.741193 -60.46703579 109.38567339 -62.03125 110.02734375 C-63.33642578 110.56681641 -63.33642578 110.56681641 -64.66796875 111.1171875 C-67.22554265 112.04687495 -69.6658823 112.63147 -72.34375 113.08984375 C-70.04355677 115.39003698 -67.86627877 116.05363367 -64.83325195 117.09326172 C-53.97666887 120.81642322 -47.97005706 124.87433693 -42.34375 135.08984375 C-47.31468824 134.67830638 -51.78883386 134.29383543 -56.34375 132.08984375 C-56.34375 132.74984375 -56.34375 133.40984375 -56.34375 134.08984375 C-55.663125 134.27546875 -54.9825 134.46109375 -54.28125 134.65234375 C-50.11666774 136.69033081 -47.45399771 139.70165901 -44.34375 143.08984375 C-43.71726562 143.77046875 -43.09078125 144.45109375 -42.4453125 145.15234375 C-39.33676864 148.61502551 -36.54037042 151.95502884 -34.34375 156.08984375 C-38.79875 154.60484375 -38.79875 154.60484375 -43.34375 153.08984375 C-42.69148438 154.21519531 -42.03921875 155.34054687 -41.3671875 156.5 C-33.1663005 170.82721028 -27.12764321 184.99010581 -23.34375 201.08984375 C-23.116875 201.95222656 -22.89 202.81460938 -22.65625 203.703125 C-19.32883229 218.19125626 -20.27486689 234.87606082 -24.34375 249.08984375 C-24.56417969 249.87681641 -24.78460938 250.66378906 -25.01171875 251.47460938 C-35.36845868 287.50400886 -59.8699516 318.11293587 -92.2734375 336.77734375 C-98.14116581 339.89813 -104.18783799 342.21396665 -110.46875 344.33984375 C-111.56074707 344.70952271 -111.56074707 344.70952271 -112.67480469 345.08666992 C-122.75612902 348.35778604 -132.12186995 349.41112321 -142.71875 349.33984375 C-143.86085938 349.34757812 -145.00296875 349.3553125 -146.1796875 349.36328125 C-156.89195393 349.33893519 -167.00869816 347.92994697 -177.15625 344.46484375 C-177.91832764 344.20469482 -178.68040527 343.9445459 -179.46557617 343.67651367 C-200.4005191 336.24812604 -216.25436285 323.87759885 -226.15625 303.71484375 C-234.29948922 284.00707384 -235.40114226 262.22886306 -227.59619141 242.16845703 C-221.2847947 227.19390314 -210.38179601 213.826344 -195.34375 207.08984375 C-179.27266321 200.63581231 -164.80048983 198.65847416 -148.34375 205.08984375 C-137.80620238 210.47866557 -130.3925973 217.38704385 -125.34375 228.08984375 C-124.97894531 228.82847656 -124.61414063 229.56710937 -124.23828125 230.328125 C-121.48519681 238.82782237 -122.07355008 249.69292382 -125.84375 257.71484375 C-132.00390049 268.12089236 -139.7570707 272.99897441 -150.71875 277.46484375 C-153.48320539 278.12304742 -154.68686004 277.86995187 -157.34375 277.08984375 C-156.69148437 276.85910156 -156.03921875 276.62835938 -155.3671875 276.390625 C-148.19878407 273.7156898 -142.78478446 271.24690669 -138.96875 264.27734375 C-136.08526432 257.01387982 -135.89388323 247.72171899 -138.2265625 240.26953125 C-142.18980872 232.52676546 -148.28313452 228.03393952 -156.34375 225.08984375 C-166.91667151 223.67353339 -175.47423092 224.83801633 -184.34375 231.08984375 C-190.57996316 236.14310514 -194.47821574 244.19956359 -195.63476562 252.0703125 C-196.93636661 266.08553119 -193.30664072 278.50731488 -184.5859375 289.6796875 C-177.10071693 297.72564759 -167.65870262 302.61158854 -156.69921875 303.328125 C-137.21135885 303.85647402 -122.36296791 298.80658531 -108.03125 285.40234375 C-93.95016227 270.46293601 -87.57499981 252.65842676 -88.09375 232.21484375 C-89.20920359 208.5226096 -101.34728412 190.18269164 -118.1875 174.4296875 C-140.95557315 154.63003249 -169.68890319 145.05116487 -199.65625 144.83984375 C-201.0165332 144.8258252 -201.0165332 144.8258252 -202.40429688 144.81152344 C-210.53847397 144.8500881 -218.48889176 145.68358842 -225.78125 149.52734375 C-226.58433594 149.93855469 -227.38742187 150.34976563 -228.21484375 150.7734375 C-230.25064526 152.03227256 -231.74206343 153.32335341 -233.34375 155.08984375 C-232.46332031 155.05503906 -231.58289063 155.02023437 -230.67578125 154.984375 C-229.51433594 154.95730469 -228.35289062 154.93023437 -227.15625 154.90234375 C-226.00769531 154.86753906 -224.85914063 154.83273437 -223.67578125 154.796875 C-220.07335801 155.11361796 -218.25008161 156.00450977 -215.34375 158.08984375 C-215.99368372 161.84577653 -217.10237076 165.202191 -218.40625 168.77734375 C-221.0743824 177.15739859 -220.69557378 185.38220512 -220.34375 194.08984375 C-224.30375 196.06984375 -224.30375 196.06984375 -228.34375 198.08984375 C-228.62758032 201.30658733 -228.47041932 202.86817245 -226.84375 205.71484375 C-224.68244297 210.57778457 -224.45746773 214.85407537 -225.34375 220.08984375 C-228.76265654 227.90640262 -236.3144449 232.07660228 -243.9296875 235.125 C-253.28826878 238.22053073 -259.60767497 237.45788126 -268.34375 233.08984375 C-268.01375 231.76984375 -267.68375 230.44984375 -267.34375 229.08984375 C-266.34794922 228.96029297 -266.34794922 228.96029297 -265.33203125 228.828125 C-259.51025534 227.90174022 -256.02395308 227.03511664 -252.34375 222.08984375 C-250.02522957 218.29590123 -249.96290717 214.69845637 -250.51953125 210.3828125 C-252.06779349 206.07556161 -255.71068733 203.66360796 -259.34375 201.08984375 C-259.05441854 197.65403262 -258.59444986 196.33619118 -256.09375 193.87890625 C-255.18625 193.16476562 -254.27875 192.450625 -253.34375 191.71484375 C-249.04628777 188.19559667 -249.04628777 188.19559667 -246.90625 183.27734375 C-247.07506743 179.98377059 -247.07506743 179.98377059 -249.34375 177.65234375 C-252.92613789 175.78651673 -255.35822826 175.77725381 -259.34375 176.08984375 C-259.34375 176.74984375 -259.34375 177.40984375 -259.34375 178.08984375 C-257.71748596 179.47216818 -256.0512498 180.8092189 -254.34375 182.08984375 C-254.9166176 185.4124758 -255.62402791 187.05955221 -258.34375 189.08984375 C-261.03793163 189.73199509 -263.61586706 190.24219053 -266.34375 190.65234375 C-272.13020025 191.50341329 -272.13020025 191.50341329 -277.34375 194.08984375 C-278.07340366 196.65267117 -278.07340366 196.65267117 -278.34375 199.08984375 C-274.87875 198.09984375 -274.87875 198.09984375 -271.34375 197.08984375 C-271.20814136 198.83768842 -271.11147791 200.58858301 -271.03125 202.33984375 C-270.94423828 203.80164063 -270.94423828 203.80164063 -270.85546875 205.29296875 C-271.34375 208.08984375 -271.34375 208.08984375 -273.375 210.40234375 C-276.98464454 212.4541417 -280.10170177 212.75448484 -284.15625 212.83984375 C-284.84912109 212.86949219 -285.54199219 212.89914062 -286.25585938 212.9296875 C-287.95121213 212.99984003 -289.64748312 213.04717037 -291.34375 213.08984375 C-291.55292468 218.43873912 -290.78624052 220.88235534 -287.34375 225.08984375 C-285.24335669 226.47852891 -285.24335669 226.47852891 -283.34375 227.08984375 C-284.34375 230.08984375 -284.34375 230.08984375 -286.07421875 231.25390625 C-290.93270653 233.04343531 -296.79264071 233.09801409 -301.6171875 231.19140625 C-303.53125 230.08984375 -303.53125 230.08984375 -306.34375 228.08984375 C-306.34375 230.39984375 -306.34375 232.70984375 -306.34375 235.08984375 C-313.64630958 232.01508182 -318.27216922 227.95317998 -322.515625 221.234375 C-324.52931889 216.01966771 -324.3228096 209.06234944 -322.5859375 203.7890625 C-320.73834815 200.39211672 -318.48234539 198.2543923 -315.34375 196.08984375 C-315.01375 195.09984375 -314.68375 194.10984375 -314.34375 193.08984375 C-314.983125 192.78046875 -315.6225 192.47109375 -316.28125 192.15234375 C-318.34375 191.08984375 -318.34375 191.08984375 -319.34375 190.08984375 C-319.76501032 185.34726789 -318.93411002 182.73727326 -316.46875 178.71484375 C-314.42753271 175.25467402 -313.06722455 172.56927121 -312.53125 168.58984375 C-311.34375 165.08984375 -311.34375 165.08984375 -309.44140625 164.109375 C-307.86251339 163.63386817 -306.27158362 163.19680216 -304.671875 162.796875 C-301.01225958 161.68548173 -299.031985 159.77807875 -296.34375 157.08984375 C-295.35215207 154.11504997 -295.21384563 152.14766261 -295.2019043 149.04272461 C-295.19486984 148.01412827 -295.18783539 146.98553192 -295.18058777 145.92576599 C-295.17642349 144.81331009 -295.17225922 143.70085419 -295.16796875 142.5546875 C-295.14475862 140.19465266 -295.12064081 137.8346266 -295.09570312 135.47460938 C-295.06068466 131.7575096 -295.03129853 128.04073048 -295.01782227 124.32348633 C-295.00226251 120.73349086 -294.96198753 117.14443262 -294.91796875 113.5546875 C-294.91987717 112.45640121 -294.92178558 111.35811493 -294.92375183 110.22654724 C-294.80686788 102.77970092 -293.97294087 95.03222711 -288.70927429 89.3143158 C-288.03333977 88.70820213 -288.03333977 88.70820213 -287.34375 88.08984375 C-287.3344043 88.81461914 -287.32505859 89.53939453 -287.31542969 90.28613281 C-287.26104041 93.63800507 -287.17753154 96.98858225 -287.09375 100.33984375 C-287.07957031 101.479375 -287.06539062 102.61890625 -287.05078125 103.79296875 C-286.75732273 114.12270849 -284.79619823 123.79383889 -278.34375 132.08984375 C-276.03375 131.75984375 -273.72375 131.42984375 -271.34375 131.08984375 C-271.48554688 130.09984375 -271.62734375 129.10984375 -271.7734375 128.08984375 C-273.2182581 116.08917298 -273.2182581 116.08917298 -269.78125 111.40234375 C-266.97267644 108.38329161 -263.91481532 106.1304525 -260.34375 104.08984375 C-260.36695313 104.8375 -260.39015625 105.58515625 -260.4140625 106.35546875 C-260.43210937 107.3403125 -260.45015625 108.32515625 -260.46875 109.33984375 C-260.49195313 110.314375 -260.51515625 111.28890625 -260.5390625 112.29296875 C-260.33912206 115.15611588 -259.97042702 116.74139613 -258.34375 119.08984375 C-257.35375 119.41984375 -256.36375 119.74984375 -255.34375 120.08984375 C-255.67375 119.42984375 -256.00375 118.76984375 -256.34375 118.08984375 C-256.98908217 114.15250064 -257.0905733 110.58900196 -255.28515625 106.96484375 C-252.0954596 102.5390316 -248.25880337 99.08794278 -243.98046875 95.73046875 C-242.12591801 93.87149187 -241.72813019 92.65237837 -241.34375 90.08984375 C-242.90222656 89.94289062 -242.90222656 89.94289062 -244.4921875 89.79296875 C-259.26435318 88.26750495 -270.19806566 84.45227495 -280.1171875 72.8984375 C-284.27450981 66.76837307 -283.99541656 60.23311181 -283.34375 53.08984375 C-279.12898749 34.76362956 -260.46688253 20.10275734 -246.34375 9.08984375 C-245.2771103 8.22324073 -244.21207866 7.35465572 -243.1484375 6.484375 C-177.49909244 -46.83378258 -75.44718115 -60.80386826 0 0 Z " fill="#FBE7C8" transform="translate(495.34375,165.91015625)"/>
<path d="M0 0 C0.94697754 0.18191895 1.89395508 0.36383789 2.86962891 0.55126953 C38.71011099 7.45292148 72.90064399 23.03321104 102 45 C103.18916016 45.88751953 103.18916016 45.88751953 104.40234375 46.79296875 C106.63385138 48.49181995 108.82117916 50.23408599 111 52 C111.93714844 52.75152344 112.87429688 53.50304687 113.83984375 54.27734375 C127.15554314 65.13843966 139.54900744 77.34725828 150 91 C151.17369141 92.46566406 151.17369141 92.46566406 152.37109375 93.9609375 C159.21966429 102.56268827 165.24078579 111.63992117 171 121 C171.3904248 121.63212402 171.78084961 122.26424805 172.18310547 122.91552734 C183.81865851 142.0018727 193.01266363 163.41472825 198.0625 185.1875 C198.31999023 186.28537842 198.57748047 187.38325684 198.84277344 188.5144043 C213.2932184 250.80790989 206.29510262 315.30038395 176 372 C175.65356445 372.65419922 175.30712891 373.30839844 174.95019531 373.98242188 C166.46358701 389.89966526 156.2653483 404.34545967 144.57910156 418.07177734 C143.03261685 419.96017194 141.62022099 421.90249543 140.2109375 423.89453125 C133.88648095 432.36368675 133.88648095 432.36368675 128.52587891 433.54541016 C122.62325441 434.09854985 116.8750531 433.67923045 111 433 C114.8399996 428.3774453 118.86118717 424.10242767 123.1875 419.9375 C129.80244315 413.43247426 135.47857047 406.44056483 141 399 C141.6197168 398.17943115 141.6197168 398.17943115 142.25195312 397.34228516 C165.20859094 366.88199195 181.48547053 330.67971675 188 293 C188.20882813 291.84371094 188.41765625 290.68742187 188.6328125 289.49609375 C196.44235904 242.91379854 189.93727214 191.40612122 169 149 C168.55495117 148.09217773 168.10990234 147.18435547 167.65136719 146.24902344 C161.33844997 133.48195085 154.56542492 121.39100601 146 110 C145.53706543 109.38302246 145.07413086 108.76604492 144.59716797 108.13037109 C139.37571192 101.22794888 133.91819119 94.60593218 128.05078125 88.23828125 C126.12555454 86.13703381 124.27921697 83.98680694 122.4375 81.8125 C118.92114097 77.80289604 115.10277826 74.39890131 111 71 C110.46262207 70.54496094 109.92524414 70.08992188 109.37158203 69.62109375 C93.77381406 56.42395601 77.11232414 45.44048678 59 36 C58.33774414 35.6498584 57.67548828 35.2997168 56.99316406 34.93896484 C11.86871266 11.36194638 -46.10156703 4.01237885 -96 14 C-97.25272705 14.24145752 -97.25272705 14.24145752 -98.53076172 14.48779297 C-140.91078526 22.90557669 -179.82439089 42.25819112 -212 71 C-212.54108398 71.47937012 -213.08216797 71.95874023 -213.63964844 72.45263672 C-258.80142843 112.62145746 -288.42154921 170.4362441 -292 231 C-292.18362375 236.52147394 -292.2448854 242.03820967 -292.25 247.5625 C-292.25100708 248.32368134 -292.25201416 249.08486267 -292.25305176 249.86911011 C-292.23470626 270.55230915 -290.34734624 290.97375786 -285 311 C-284.82243164 311.6811084 -284.64486328 312.3622168 -284.46191406 313.06396484 C-275.50664451 346.9455328 -259.58128635 378.21475077 -237 405 C-238.203552 408.22618801 -239.49726131 411.00988702 -241.5 413.8125 C-241.9228125 414.41707031 -242.345625 415.02164062 -242.78125 415.64453125 C-243.1834375 416.09183594 -243.585625 416.53914063 -244 417 C-244.66 417 -245.32 417 -246 417 C-257.42102473 404.92634529 -266.85337289 390.42168079 -275 376 C-275.34659668 375.39188477 -275.69319336 374.78376953 -276.05029297 374.15722656 C-292.58269665 344.94402664 -301.54189266 312.08719902 -306 279 C-306.16012573 277.84504028 -306.16012573 277.84504028 -306.32348633 276.66674805 C-307.25201923 268.93173001 -307.18608508 261.15019706 -307.18530273 253.37133789 C-307.18747357 250.96677512 -307.20564154 248.56268424 -307.22460938 246.15820312 C-307.41152541 194.71014258 -289.58841652 142.21001109 -259 101 C-258.34547852 100.11223877 -258.34547852 100.11223877 -257.67773438 99.20654297 C-250.46114044 89.50156053 -242.39577848 80.68984729 -234 72 C-233.12722412 71.08637695 -233.12722412 71.08637695 -232.23681641 70.15429688 C-224.57804085 62.15546399 -216.65411195 54.93281054 -207.76660156 48.32226562 C-206.00178942 47.00133935 -204.26193514 45.65218163 -202.5234375 44.296875 C-192.30991392 36.4403184 -181.35793039 30.05632225 -170 24 C-168.75935791 23.33653564 -168.75935791 23.33653564 -167.49365234 22.65966797 C-145.8032844 11.25483015 -121.89575911 3.57560898 -97.76367188 -0.52832031 C-95.99365612 -0.83041134 -94.2262685 -1.14861125 -92.46289062 -1.48730469 C-62.82122313 -7.15168953 -29.45886448 -6.10861102 0 0 Z " fill="#EFA928" transform="translate(416,62)"/>
<path d="M0 0 C0.73336635 -0.00467997 1.46673271 -0.00935994 2.22232229 -0.01418173 C4.66982953 -0.02610763 7.11677428 -0.0166833 9.56428528 -0.00723267 C11.32429835 -0.01130018 13.08430888 -0.01664308 14.84431458 -0.02316284 C19.62460897 -0.03684187 24.40470906 -0.03152976 29.18500686 -0.02202559 C34.21323768 -0.01440702 39.24145233 -0.02148301 44.26968384 -0.02618408 C52.73591573 -0.03164579 61.20206921 -0.02445014 69.66828918 -0.01016235 C79.38819517 0.00605424 89.10791125 0.00095806 98.82781237 -0.01564157 C107.21301563 -0.02937798 115.59816255 -0.03111422 123.98337346 -0.02332556 C128.97247966 -0.01870073 133.96149761 -0.01787572 138.95059776 -0.02793503 C167.11039406 -0.07690996 194.22431708 1.04853282 221.82527161 7.19345093 C223.45067117 7.54558597 225.07616095 7.89730476 226.70173645 8.24862671 C258.55346419 15.20126464 258.55346419 15.20126464 266.51277161 19.38095093 C263.59249344 21.32780304 261.41723436 22.15061128 258.08699036 23.15048218 C256.9920929 23.47951538 255.89719543 23.80854858 254.76911926 24.14755249 C231.82680348 30.87110433 209.30259577 35.70013175 185.51277161 38.38095093 C184.42753725 38.50654149 184.42753725 38.50654149 183.32037896 38.63466924 C175.05979922 39.4955906 166.83009546 39.51812839 158.53591919 39.50120544 C156.93425247 39.50164217 155.33258581 39.50251895 153.73091954 39.50379461 C149.35475566 39.5060196 144.97861647 39.50204575 140.60245574 39.49701655 C135.87390689 39.49268345 131.14535935 39.4941605 126.41680908 39.49491882 C118.23257431 39.49544225 110.04834753 39.49231441 101.86411476 39.48668098 C90.03120159 39.4785414 78.19829228 39.47594824 66.36537661 39.47469299 C47.16556403 39.47250634 27.96575571 39.46585673 8.76594543 39.45639038 C-9.88086425 39.44720627 -28.52767277 39.44013032 -47.17448425 39.43588257 C-48.32457459 39.43561984 -49.47466492 39.43535712 -50.65960648 39.43508644 C-56.429481 39.43378136 -62.19935552 39.43251766 -67.96923006 39.43127453 C-115.80856578 39.42091395 -163.64789688 39.40330614 -211.48722839 39.38095093 C-210.52930422 33.23824143 -209.35237358 28.56668753 -204.48722839 24.38095093 C-200.46659356 23.22685693 -196.58977016 23.2372385 -192.4237442 23.32832527 C-190.07992673 23.37945354 -187.74077497 23.37625965 -185.39646912 23.36274719 C-181.63988038 23.34627978 -177.88417766 23.35433364 -174.12760925 23.37380981 C-166.63494646 23.39831527 -159.14480003 23.29108991 -151.65324402 23.17831421 C-150.2137139 23.15701231 -148.7741832 23.13574972 -147.33465195 23.11452484 C-145.10331936 23.08161097 -142.87198708 23.04868271 -140.64065814 23.015522 C-131.92143229 22.88718562 -123.20191166 22.78523884 -114.48234558 22.68319702 C-111.1409953 22.64379182 -107.79964655 22.60425656 -104.45829773 22.56472778 C-103.62040828 22.55483259 -102.78251884 22.5449374 -101.91923881 22.53474236 C-85.42096552 22.33956316 -68.92282875 22.13315188 -52.42472839 21.92391968 C-51.12383664 21.90745156 -51.12383664 21.90745156 -49.79666424 21.89065075 C-14.94156779 21.44878796 19.91070988 20.89296331 54.76277161 20.25595093 C55.98293472 20.23368061 57.20309784 20.21141029 58.4602356 20.18846512 C72.81121122 19.92609154 87.16206464 19.65762787 101.51277161 19.38095093 C100.78592761 19.37156526 100.05908361 19.36217958 99.31021404 19.3525095 C81.58942639 19.12338803 63.8687075 18.88953008 46.14805126 18.65046024 C37.57832851 18.53495903 29.0085903 18.42103572 20.438797 18.31088257 C12.96563911 18.21482112 5.49252821 18.11574249 -1.98054236 18.01310533 C-5.934064 17.95891027 -9.88759245 17.90618231 -13.8411808 17.85707283 C-17.57005656 17.8107068 -21.29885624 17.76027608 -25.02763748 17.7068615 C-27.03293435 17.67915551 -29.03828777 17.65563917 -31.04364014 17.6322937 C-38.23713292 17.52481765 -45.33462391 17.16476688 -52.48722839 16.38095093 C-52.48722839 16.05095093 -52.48722839 15.72095093 -52.48722839 15.38095093 C-51.83874939 15.23061401 -51.19027039 15.0802771 -50.5221405 14.92538452 C-29.96335615 10.29342978 -29.96335615 10.29342978 -10.76621532 1.81760216 C-6.92399482 0.13417647 -4.1868575 0.00361803 0 0 Z " fill="#F8AE27" transform="translate(423.4872283935547,507.6190490722656)"/>
<path d="M0 0 C0.32509767 5.224784 0.62497108 10.44974052 0.88427734 15.67822266 C0.98536576 17.70638891 1.09543871 19.73410333 1.20703125 21.76171875 C1.24183594 22.80972656 1.27664062 23.85773438 1.3125 24.9375 C1.36857422 26.31228516 1.36857422 26.31228516 1.42578125 27.71484375 C1 30 1 30 -0.89453125 31.81640625 C-3 33 -3 33 -5 33 C-5.26683594 33.53625 -5.53367188 34.0725 -5.80859375 34.625 C-6.68852062 36.37908372 -7.57799178 38.12838714 -8.47265625 39.875 C-8.99730469 40.90625 -9.52195313 41.9375 -10.0625 43 C-10.85333984 44.546875 -10.85333984 44.546875 -11.66015625 46.125 C-15.21986138 53.76331772 -14.67570973 61.05066359 -11.8671875 68.84765625 C-11.58101562 69.59917969 -11.29484375 70.35070312 -11 71.125 C-8.96042674 76.53630024 -7.28062994 81.11361617 -8 87 C-9.53125 90.03515625 -9.53125 90.03515625 -11.5 93.0625 C-16.1296399 101.27728788 -16.53238379 108.35979748 -14.0703125 117.421875 C-9.98363842 128.94096295 -9.98363842 128.94096295 -2.4152832 138.19799805 C-0.2196718 140.99354881 -0.76380025 143.36551444 -0.92578125 146.85546875 C-0.96544258 147.84792351 -0.96544258 147.84792351 -1.00590515 148.86042786 C-1.09356873 150.97038073 -1.20274361 153.07859224 -1.3125 155.1875 C-1.37576972 156.61907854 -1.43763544 158.05071987 -1.49804688 159.48242188 C-1.64908903 162.98915579 -1.81943564 166.4946482 -2 170 C-6.35972367 168.05814734 -8.79000493 164.99832506 -11.6875 161.3125 C-12.47979004 160.30981079 -12.47979004 160.30981079 -13.28808594 159.28686523 C-18.50920903 152.54725761 -22.9276976 145.48070412 -27 138 C-27.36109863 137.33822754 -27.72219727 136.67645508 -28.09423828 135.99462891 C-31.79824966 129.11575062 -35.01494766 122.51170845 -37.0625 114.9375 C-38.67699925 109.06393712 -41.20710194 105.70237912 -46 102 C-46.99 102.33 -47.98 102.66 -49 103 C-63.13902355 104.34366531 -63.13902355 104.34366531 -67.1640625 101.4375 C-68.5 99.5 -68.5 99.5 -70 96 C-70.40605469 96.5053125 -70.81210938 97.010625 -71.23046875 97.53125 C-76.73270348 103.06643224 -82.114928 103.86531342 -89.625 104 C-94.75076207 103.9787276 -98.63584376 103.94961345 -102.91796875 100.96875 C-104.65770313 98.70171468 -105.93445044 96.64550235 -107 94 C-107.44730469 94.39832031 -107.89460938 94.79664063 -108.35546875 95.20703125 C-108.96003906 95.73683594 -109.56460938 96.26664063 -110.1875 96.8125 C-110.77917969 97.33457031 -111.37085937 97.85664062 -111.98046875 98.39453125 C-117.46926637 102.75796611 -121.19415282 103.47478228 -128.0625 103.375 C-128.86494141 103.38660156 -129.66738281 103.39820313 -130.49414062 103.41015625 C-134.1416551 103.39199435 -136.37534741 103.37193055 -139.55859375 101.4765625 C-140.03425781 100.98929688 -140.50992188 100.50203125 -141 100 C-141.185625 100.680625 -141.37125 101.36125 -141.5625 102.0625 C-145.07740416 109.24513023 -151.72920223 113.99861468 -159 117 C-168.17509 119.89739684 -177.45674136 119.28753473 -186.25 115.3125 C-195.2869686 110.17530208 -201.30621348 103.01605565 -204.64453125 93.08203125 C-206.29399014 83.42091487 -205.72041445 73.05305525 -200.5234375 64.59765625 C-194.17102035 55.88121172 -186.50196066 50.59978607 -176 48 C-167.77287443 46.8889011 -160.12782041 48.77097698 -152.875 52.6875 C-147.64101471 56.89744469 -142.93309732 61.5448062 -139 67 C-138.484375 66.525625 -137.96875 66.05125 -137.4375 65.5625 C-134.21506513 63.49683662 -131.8190784 63.30799019 -128 63 C-126.81470703 62.85111328 -126.81470703 62.85111328 -125.60546875 62.69921875 C-121.7222849 62.39500619 -119.0729819 62.28592494 -115.7578125 64.4921875 C-114.39514151 65.73144677 -113.06150728 67.00353224 -111.76171875 68.30859375 C-109.70162985 70.28646181 -107.74193868 71.22882975 -105 72 C-104.7525 71.071875 -104.505 70.14375 -104.25 69.1875 C-102.93473367 65.83357085 -102.16736868 64.63167477 -99 63 C-97.515 63.495 -97.515 63.495 -96 64 C-93.97667045 63.68216983 -91.95612388 63.34646226 -89.9375 63 C-85.64963897 62.58798207 -83.69564109 62.55574038 -80.02734375 64.8984375 C-78.3038944 66.50766709 -76.63097291 68.17340781 -75.0234375 69.8984375 C-73.09571758 72.22591096 -73.09571758 72.22591096 -70 73 C-69.566875 72.071875 -69.13375 71.14375 -68.6875 70.1875 C-66.32258065 65.72043011 -66.32258065 65.72043011 -64 64 C-61.0390625 63.56640625 -61.0390625 63.56640625 -57.625 63.5625 C-56.50351563 63.54316406 -55.38203125 63.52382813 -54.2265625 63.50390625 C-50.42118774 64.08899414 -48.762185 65.3878213 -46 68 C-43.53364216 67.66854592 -43.53364216 67.66854592 -41 66 C-39.44653693 63.10411634 -38.57516549 60.01187542 -37.625 56.875 C-37.02816107 55.04923036 -36.4265256 53.22502232 -35.8203125 51.40234375 C-35.51899414 50.49081543 -35.21767578 49.57928711 -34.90722656 48.64013672 C-30.82590252 36.76300049 -15.37668412 0 0 0 Z " fill="#EEA928" transform="translate(217,442)"/>
<path d="M0 0 C0.32509767 5.224784 0.62497108 10.44974052 0.88427734 15.67822266 C0.98536576 17.70638891 1.09543871 19.73410333 1.20703125 21.76171875 C1.25923828 23.33373047 1.25923828 23.33373047 1.3125 24.9375 C1.36857422 26.31228516 1.36857422 26.31228516 1.42578125 27.71484375 C1 30 1 30 -0.89453125 31.81640625 C-3 33 -3 33 -5 33 C-5.26683594 33.53625 -5.53367188 34.0725 -5.80859375 34.625 C-6.68852062 36.37908372 -7.57799178 38.12838714 -8.47265625 39.875 C-8.99730469 40.90625 -9.52195313 41.9375 -10.0625 43 C-10.58972656 44.03125 -11.11695313 45.0625 -11.66015625 46.125 C-15.21986138 53.76331772 -14.67570973 61.05066359 -11.8671875 68.84765625 C-11.58101562 69.59917969 -11.29484375 70.35070312 -11 71.125 C-8.96042674 76.53630024 -7.28062994 81.11361617 -8 87 C-9.53125 90.03515625 -9.53125 90.03515625 -11.5 93.0625 C-16.1296399 101.27728788 -16.53238379 108.35979748 -14.0703125 117.421875 C-9.98363842 128.94096295 -9.98363842 128.94096295 -2.4152832 138.19799805 C-0.2196718 140.99354881 -0.76380025 143.36551444 -0.92578125 146.85546875 C-0.96544258 147.84792351 -0.96544258 147.84792351 -1.00590515 148.86042786 C-1.09356873 150.97038073 -1.20274361 153.07859224 -1.3125 155.1875 C-1.37576972 156.61907854 -1.43763544 158.05071987 -1.49804688 159.48242188 C-1.64908903 162.98915579 -1.81943564 166.4946482 -2 170 C-6.35972367 168.05814734 -8.79000493 164.99832506 -11.6875 161.3125 C-12.21569336 160.64404053 -12.74388672 159.97558105 -13.28808594 159.28686523 C-23.4878298 146.12068044 -34.12019209 129.32105862 -38 113 C-38.41378906 111.33130859 -38.41378906 111.33130859 -38.8359375 109.62890625 C-40.87730989 100.46582293 -41.28511467 91.43592622 -41.3125 82.0625 C-41.31789795 80.92570801 -41.3232959 79.78891602 -41.32885742 78.61767578 C-41.24560871 68.73641612 -39.76324079 60.12213129 -36 51 C-35.71592285 50.27635254 -35.4318457 49.55270508 -35.13916016 48.80712891 C-28.74315393 32.56577976 -20.86353893 18.87933877 -9 6 C-8.4834082 5.43522949 -7.96681641 4.87045898 -7.43457031 4.28857422 C-3.36325037 0 -3.36325037 0 0 0 Z " fill="#F4AC26" transform="translate(217,442)"/>
<path d="M0 0 C2.63804212 1.51766881 4.35696072 3.08530689 6.4140625 5.30859375 C8.3585179 7.38236022 10.28072555 8.23520406 13 9 C13.2475 8.071875 13.495 7.14375 13.75 6.1875 C15.06526633 2.83357085 15.83263132 1.63167477 19 0 C19.99 0.33 20.98 0.66 22 1 C24.02332955 0.68216983 26.04387612 0.34646226 28.0625 0 C32.35036103 -0.41201793 34.30435891 -0.44425962 37.97265625 1.8984375 C39.6961056 3.50766709 41.36902709 5.17340781 42.9765625 6.8984375 C44.90428242 9.22591096 44.90428242 9.22591096 48 10 C48.433125 9.071875 48.86625 8.14375 49.3125 7.1875 C51.67741935 2.72043011 51.67741935 2.72043011 54 1 C56.9609375 0.56640625 56.9609375 0.56640625 60.375 0.5625 C61.49648437 0.54316406 62.61796875 0.52382813 63.7734375 0.50390625 C67.57881226 1.08899414 69.237815 2.3878213 72 5 C73.65 4.34 75.3 3.68 77 3 C78.06578594 6.19735781 78.0857117 8.3872083 78.02734375 11.7421875 C78.01509766 12.89203125 78.00285156 14.041875 77.99023438 15.2265625 C77.95564174 17.61986045 77.91672715 20.01310066 77.87304688 22.40625 C77.79710536 30.46498442 78.53050955 38.07645473 80 46 C78.30729167 44.4375 76.61458333 42.875 74.921875 41.3125 C71.8682674 39.22710945 68.86215403 40.00913175 65.28515625 40.24609375 C54.15453531 40.83301915 54.15453531 40.83301915 50.83984375 38.44140625 C49.5 36.5 49.5 36.5 48 33 C47.39091797 33.75796875 47.39091797 33.75796875 46.76953125 34.53125 C41.26729652 40.06643224 35.885072 40.86531342 28.375 41 C23.24923793 40.9787276 19.36415624 40.94961345 15.08203125 37.96875 C13.34229687 35.70171468 12.06554956 33.64550235 11 31 C10.55269531 31.39832031 10.10539062 31.79664063 9.64453125 32.20703125 C9.03996094 32.73683594 8.43539062 33.26664063 7.8125 33.8125 C7.22082031 34.33457031 6.62914063 34.85664062 6.01953125 35.39453125 C0.5480478 39.74420185 -3.21188475 40.49832064 -10.0625 40.4375 C-10.86494141 40.45748047 -11.66738281 40.47746094 -12.49414062 40.49804688 C-18.37760571 40.49316433 -18.37760571 40.49316433 -21.55859375 37.97265625 C-22.03425781 37.32167969 -22.50992188 36.67070313 -23 36 C-22.505 34.824375 -22.01 33.64875 -21.5 32.4375 C-18.51101482 23.49887606 -19.14178363 13.85933201 -22 5 C-14.99214531 -0.71693409 -8.85477164 -1.15258391 0 0 Z " fill="#F0AA27" transform="translate(99,505)"/>
<path d="M0 0 C1.15628906 0.39832031 1.15628906 0.39832031 2.3359375 0.8046875 C8.7193191 3.45391702 13.59183469 8.81498588 18 14 C18 14.66 18 15.32 18 16 C17.19949219 16.27650391 17.19949219 16.27650391 16.3828125 16.55859375 C7.56521731 19.99104863 1.56277805 26.39216855 -5 33 C-7.46270288 29.30594568 -7.22985417 27.36722928 -7 23 C-6.5 20.5625 -6.5 20.5625 -6 19 C-10.83148276 21.48839525 -14.06282682 24.98798958 -17.75 28.875 C-27.34416034 38.73730837 -27.34416034 38.73730837 -34 41 C-34.99 41 -35.98 41 -37 41 C-36.48123663 32.78922808 -36.48123663 32.78922808 -34.4375 29.4375 C-32.78156991 26.62961854 -32.32626721 24.30566248 -32.4609375 21.04296875 C-33.54514665 16.9339732 -36.84384326 14.6291437 -40 12 C-41.43803832 10.72977585 -42.87554801 9.45895295 -44.3125 8.1875 C-44.96863281 7.62417969 -45.62476563 7.06085938 -46.30078125 6.48046875 C-47.57729445 5.36828828 -48.80283014 4.19716986 -50 3 C-49.9375 1 -49.9375 1 -49 -1 C-35.61676739 -8.26518342 -13.68060998 -5.05510911 0 0 Z " fill="#0A0A0A" transform="translate(288,233)"/>
<path d="M0 0 C4.98996351 3.72802293 8.2868508 7.95359108 10 14 C10.85496526 21.12827284 10.36983107 27.13928539 6 33 C1.0319931 38.41070058 -4.45128734 41.53459506 -11.8125 42.5 C-17.97564463 42.21278549 -23.67954382 39.40952419 -27.93359375 34.9921875 C-33.14930237 28.21301707 -33.60229753 22.43216549 -33 14 C-31.82590075 8.95229773 -28.92689036 4.3728489 -25 1 C-16.7332077 -4.0191239 -8.66939009 -4.33469505 0 0 Z " fill="#0A0908" transform="translate(58,506)"/>
<path d="M0 0 C9.55400231 -0.18636081 19.10736755 -0.32800684 28.66279888 -0.41449738 C33.10113463 -0.45603499 37.53821607 -0.51225998 41.97583008 -0.60351562 C46.26832485 -0.6912223 50.55962286 -0.73843472 54.85294533 -0.75901794 C56.48075998 -0.77366208 58.10851809 -0.80225611 59.73581505 -0.84584045 C71.73149119 -1.15398829 78.24805378 0.97127944 88 8 C90.73713622 9.34112691 93.48970547 10.40128777 96.375 11.375 C97.02082031 11.60832031 97.66664063 11.84164062 98.33203125 12.08203125 C102.50912882 13.5696495 106.7291829 14.81917977 111 16 C111 16.33 111 16.66 111 17 C58.53 16.505 58.53 16.505 5 16 C0 4 0 4 0 0 Z " fill="#F6AF2A" transform="translate(215,507)"/>
<path d="M0 0 C2.63804212 1.51766881 4.35696072 3.08530689 6.4140625 5.30859375 C8.3585179 7.38236022 10.28072555 8.23520406 13 9 C12.67 9.94875 12.34 10.8975 12 11.875 C10.23732358 18.0256156 10.35361566 24.82605872 12 31 C11.40316406 31.25523437 10.80632812 31.51046875 10.19140625 31.7734375 C7.78831782 33.11848165 6.69287606 34.52889984 4.9375 36.625 C0.46337051 40.70711052 -3.96683934 40.67771002 -9.75 40.6875 C-11.01082397 40.69740967 -11.01082397 40.69740967 -12.29711914 40.70751953 C-16.32245321 40.59058606 -18.35063045 40.51457617 -21.578125 37.95703125 C-22.04734375 37.31121094 -22.5165625 36.66539062 -23 36 C-22.505 34.824375 -22.01 33.64875 -21.5 32.4375 C-18.51101482 23.49887606 -19.14178363 13.85933201 -22 5 C-14.99214531 -0.71693409 -8.85477164 -1.15258391 0 0 Z " fill="#0E0C08" transform="translate(99,505)"/>
<path d="M0 0 C0.73734375 0.21785156 1.4746875 0.43570312 2.234375 0.66015625 C4.48751754 0.57579946 6.73873039 0.42476426 8.984375 0.22265625 C10.15484375 0.12082031 11.3253125 0.01898438 12.53125 -0.0859375 C13.42328125 -0.16972656 14.3153125 -0.25351562 15.234375 -0.33984375 C14.71169034 2.42291802 14.12567913 4.98624385 13.234375 7.66015625 C12.98053835 10.86388247 13.00302662 14.07241447 12.984375 17.28515625 C12.96375 18.15011719 12.943125 19.01507812 12.921875 19.90625 C12.88933873 25.33167229 13.6092487 29.70132949 15.58691406 34.76318359 C16.234375 36.66015625 16.234375 36.66015625 16.234375 39.66015625 C0.21758591 40.71786874 0.21758591 40.71786874 -4.2265625 38.34765625 C-9.07327381 32.83667486 -10.28803632 25.64159519 -10.15625 18.4921875 C-9.30721944 12.33671598 -7.03215145 5.76336189 -3.34765625 0.71875 C-1.765625 -0.33984375 -1.765625 -0.33984375 0 0 Z " fill="#EDA726" transform="translate(118.765625,505.33984375)"/>
<path d="M0 0 C0.50789063 0.39832031 1.01578125 0.79664063 1.5390625 1.20703125 C5.53903498 4.28566175 9.36879143 6.91595614 14 9 C13.67 9.94875 13.34 10.8975 13 11.875 C11.23732358 18.0256156 11.35361566 24.82605872 13 31 C12.42765625 31.25523437 11.8553125 31.51046875 11.265625 31.7734375 C8.75826267 33.13087159 6.8669544 34.71974104 4.75 36.625 C4.04359375 37.25664063 3.3371875 37.88828125 2.609375 38.5390625 C2.07828125 39.02117188 1.5471875 39.50328125 1 40 C-4.00351642 36.08968885 -4.07793858 28.8860359 -5 23 C-5.74006987 14.88165777 -5.30736364 6.48516214 0 0 Z " fill="#0B0A09" transform="translate(98,505)"/>
<path d="M0 0 C0.51949219 0.39832031 1.03898438 0.79664063 1.57421875 1.20703125 C4.63648962 3.53345145 7.6301726 5.7796773 10.9375 7.75 C13 9 13 9 14 11 C13.67 11.99 13.34 12.98 13 14 C12.90495372 16.14413223 12.87012774 18.2912677 12.875 20.4375 C12.87242187 21.57058594 12.86984375 22.70367188 12.8671875 23.87109375 C12.97674807 26.45221183 13.24135123 28.54944405 14 31 C12.40629329 32.36646148 10.79967018 33.71787166 9.1875 35.0625 C8.29417969 35.81660156 7.40085938 36.57070313 6.48046875 37.34765625 C5.25263672 38.16556641 5.25263672 38.16556641 4 39 C1 38 1 38 -0.16796875 36.19921875 C-2.80732559 29.69689519 -3.39494432 23.68911581 -3.4375 16.75 C-3.44740967 15.89881592 -3.45731934 15.04763184 -3.4675293 14.1706543 C-3.39348088 8.71824062 -2.47742772 4.86285547 0 0 Z " fill="#0A0A08" transform="translate(134,506)"/>
<path d="M0 0 C2.06132142 -0.10864945 4.12431321 -0.18588321 6.1875 -0.25 C7.33605469 -0.29640625 8.48460937 -0.3428125 9.66796875 -0.390625 C13.60353399 0.07075428 15.17745787 1.29971488 18 4 C19.65 3.34 21.3 2.68 23 2 C24.06578594 5.19735781 24.0857117 7.3872083 24.02734375 10.7421875 C24.00897461 12.46695313 24.00897461 12.46695313 23.99023438 14.2265625 C23.95564174 16.61986045 23.91672715 19.01310066 23.87304688 21.40625 C23.79710536 29.46498442 24.53050955 37.07645473 26 45 C24.30729167 43.4375 22.61458333 41.875 20.921875 40.3125 C18.837347 38.62402557 18.837347 38.62402557 15 39 C9.66666667 39 4.33333333 39 -1 39 C-1 38.67 -1 38.34 -1 38 C3.95 38 8.9 38 14 38 C13.51015625 36.78054688 13.0203125 35.56109375 12.515625 34.3046875 C10.50317304 28.26022885 10.63200967 22.4374824 10.75 16.125 C10.75515625 14.99835937 10.7603125 13.87171875 10.765625 12.7109375 C10.8445197 4.46644089 10.8445197 4.46644089 12 1 C8.04 1 4.08 1 0 1 C0 0.67 0 0.34 0 0 Z " fill="#110F0B" transform="translate(153,506)"/>
<path d="M0 0 C-0.32484375 1.23363281 -0.32484375 1.23363281 -0.65625 2.4921875 C-3.54857893 14.08828404 -3.42548472 22.38837077 -0.55859375 33.99609375 C0 37 0 37 -1 40 C-4.96 39.67 -8.92 39.34 -13 39 C-12.25130208 36.78645833 -11.50260417 34.57291667 -10.75390625 32.359375 C-7.88672851 23.38644569 -8.53514784 15.25841799 -11.34375 6.3125 C-12 4 -12 4 -12 1 C-8.0186217 -0.3271261 -4.14954773 -0.06915913 0 0 Z " fill="#E9AF31" transform="translate(97,505)"/>
<path d="M0 0 C-0.56589844 0.25394531 -1.13179688 0.50789062 -1.71484375 0.76953125 C-2.44832031 1.11371094 -3.18179687 1.45789063 -3.9375 1.8125 C-4.66839844 2.14894531 -5.39929688 2.48539063 -6.15234375 2.83203125 C-8.33029489 3.93600134 -8.33029489 3.93600134 -9 7 C-8.417379 6.99777939 -7.834758 6.99555878 -7.23448181 6.99327087 C47.46729285 6.79455076 47.46729285 6.79455076 74 8 C74 8.33 74 8.66 74 9 C61.80352019 9.023233 49.6070457 9.04097077 37.41054821 9.05181217 C31.74642845 9.0570171 26.0823239 9.06407108 20.41821289 9.07543945 C14.94578719 9.08635359 9.47337607 9.09229483 4.00094032 9.09487724 C1.91950565 9.09671618 -0.16192828 9.10030702 -2.2433567 9.10573006 C-23.19040448 9.1581055 -23.19040448 9.1581055 -32 8 C-32 7.67 -32 7.34 -32 7 C-31.30438965 6.82871582 -30.6087793 6.65743164 -29.89208984 6.48095703 C-26.719101 5.69814902 -23.54704846 4.91160948 -20.375 4.125 C-18.73337891 3.72087891 -18.73337891 3.72087891 -17.05859375 3.30859375 C-15.99511719 3.04433594 -14.93164062 2.78007813 -13.8359375 2.5078125 C-12.86188965 2.26691895 -11.8878418 2.02602539 -10.88427734 1.77783203 C-7.91532853 1.01813125 -7.91532853 1.01813125 -4.76025391 -0.15673828 C-2 -1 -2 -1 0 0 Z " fill="#E9B330" transform="translate(403,516)"/>
<path d="M0 0 C4.45850936 0.79616239 5.90783917 1.93313458 8.5 5.625 C9.1875 9.125 9.1875 9.125 8.5 12.625 C5.875 15.625 5.875 15.625 2.5 17.625 C-1.58014042 17.79153634 -3.12874807 16.9074743 -6.375 14.4375 C-8.5 11.625 -8.5 11.625 -9.125 8.625 C-8.00794016 3.26311277 -5.32967295 0.95172731 0 0 Z " fill="#EFAC29" transform="translate(503.5,476.375)"/>
<path d="M0 0 C4.10703441 0.85563217 5.55401113 2.24378009 8 5.625 C8.625 9.125 8.625 9.125 8 12.625 C5.9375 15.5625 5.9375 15.5625 3 17.625 C-0.95779649 18.24991523 -3.00863886 18.23506839 -6.4375 16.125 C-8.6077527 12.65259567 -8.89291241 9.54605015 -8 5.625 C-5.56226471 2.18349135 -4.14182881 0.862881 0 0 Z " fill="#EEAC2A" transform="translate(520,144.375)"/>
<path d="M0 0 C2.5 2.125 2.5 2.125 4 5 C4 8.92016134 3.55226285 11.17160572 1.375 14.4375 C-2.02982754 16.67751812 -4.006899 16.70054403 -8 16 C-11 13.4375 -11 13.4375 -13 10 C-13.14905149 5.67750688 -12.67946009 3.79936481 -9.875 0.5 C-6.02851705 -1.50686067 -4.11453459 -1.27176524 0 0 Z " fill="#EEAC28" transform="translate(236,128)"/>
<path d="M0 0 C4.40093281 0.86446895 5.89836569 2.06097945 8.5 5.6875 C9.05348638 9.56190468 8.79968563 12.46794012 6.5 15.6875 C3.53842928 17.72996256 1.04774927 18.29321329 -2.5 17.6875 C-5.62460834 15.27302992 -7.2102912 13.44396188 -8.625 9.75 C-8.5 6.6875 -8.5 6.6875 -6.5 3.3125 C-3.5 0.6875 -3.5 0.6875 0 0 Z " fill="#F8AF26" transform="translate(190.5,166.3125)"/>
<path d="M0 0 C2.88293954 1.72976372 3.02200887 3.07923193 3.9375 6.375 C4 10 4 10 2.5 12.875 C-0.76281849 15.64839572 -2.73561227 16.07481382 -7 16 C-9.875 14.5 -9.875 14.5 -12 12 C-13.0625 8.5625 -13.0625 8.5625 -13 5 C-9.23021184 -0.97966398 -6.77641513 -1.42661371 0 0 Z " fill="#F2AC29" transform="translate(574,217)"/>
<path d="M0 0 C3.5 0.625 3.5 0.625 6.5 2.625 C8.54461358 5.69192037 8.82393649 6.29393707 8.5625 9.75 C8.02867962 12.32204366 7.57743535 13.52588276 5.9375 15.625 C2.39762562 17.07725615 -0.7338737 17.30413753 -4.5 16.625 C-7 15.0625 -7 15.0625 -8.5 12.625 C-9.22125695 8.21731863 -9.02001338 6.36562512 -6.4375 2.6875 C-3.5 0.625 -3.5 0.625 0 0 Z " fill="#F0AD2B" transform="translate(498.5,126.375)"/>
<path d="M0 0 C2.4375 1.625 2.4375 1.625 4 4 C4.55921637 7.91451456 4.63274809 10.0382229 2.4375 13.375 C-0.82839428 15.55226285 -3.07983866 16 -7 16 C-10.47007566 14.11408931 -11.69331443 12.82985506 -13.0625 9.125 C-12.98024758 5.0123791 -11.56167842 3.14720491 -9 0 C-5.81452856 -1.59273572 -3.39809153 -0.76164121 0 0 Z " fill="#F2AA25" transform="translate(313,92)"/>
<path d="M0 0 C2.5 2.125 2.5 2.125 4 5 C4.07481382 9.26438773 3.64839572 11.23718151 0.875 14.5 C-2.97148295 16.50686067 -4.88546541 16.27176524 -9 15 C-11.5 12.875 -11.5 12.875 -13 10 C-13.07481382 5.73561227 -12.64839572 3.76281849 -9.875 0.5 C-6.02851705 -1.50686067 -4.11453459 -1.27176524 0 0 Z " fill="#F0A929" transform="translate(576,386)"/>
<path d="M0 0 C1.90625 0.41015625 1.90625 0.41015625 4.40625 1.91015625 C6.50026202 5.40017628 6.78526716 8.50855376 5.90625 12.41015625 C3.84375 15.47265625 3.84375 15.47265625 0.90625 17.41015625 C-3.40567698 17.56145193 -5.30841844 17.11494098 -8.53125 14.22265625 C-10.39590998 10.86626829 -10.7241261 9.19241285 -10.09375 5.41015625 C-7.58723776 0.60600778 -5.16813059 -0.37603935 0 0 Z " fill="#F0AC29" transform="translate(257.09375,111.58984375)"/>
<path d="M0 0 C4.10703441 0.85563217 5.55401113 2.24378009 8 5.625 C8.62601538 9.58976406 8.65946039 11.62262021 6.4375 15 C3.14507816 17.1949479 0.95830645 17.69444397 -3 17.625 C-5.9375 15.625 -5.9375 15.625 -8 12.625 C-8.625 9.125 -8.625 9.125 -8 5.625 C-5.55401113 2.24378009 -4.10703441 0.85563217 0 0 Z " fill="#F0AB26" transform="translate(421,90.375)"/>
<path d="M0 0 C3.74225404 1.1566967 5.28964665 1.79776291 7.4375 5.0625 C8 8.5 8 8.5 7.4375 12.0625 C4.99151113 15.44371991 3.54453441 16.83186783 -0.5625 17.6875 C-4.66953441 16.83186783 -6.11651113 15.44371991 -8.5625 12.0625 C-9.36035988 7.59448469 -9.07984028 5.81499495 -6.5 2.0625 C-3.5625 0.0625 -3.5625 0.0625 0 0 Z " fill="#F3AC26" transform="translate(365.5625,82.9375)"/>
<path d="M0 0 C2.5 2.125 2.5 2.125 4 5 C4.07481382 9.26438773 3.64839572 11.23718151 0.875 14.5 C-2.97148295 16.50686067 -4.88546541 16.27176524 -9 15 C-11.5 12.875 -11.5 12.875 -13 10 C-13.07481382 5.73561227 -12.64839572 3.76281849 -9.875 0.5 C-6.02851705 -1.50686067 -4.11453459 -1.27176524 0 0 Z " fill="#F1AA26" transform="translate(153,358)"/>
<path d="M0 0 C2.4375 2.125 2.4375 2.125 4 5 C4.07481382 9.26438773 3.64839572 11.23718151 0.875 14.5 C-2.91613014 16.47798094 -4.92797973 16.13111674 -9 15 C-11.88293954 13.27023628 -12.02200887 11.92076807 -12.9375 8.625 C-13 5 -13 5 -11.25 2.125 C-7.53095616 -1.38743029 -4.77172887 -1.36335111 0 0 Z " fill="#EEAC2B" transform="translate(592,301)"/>
<path d="M0 0 C3.58911308 2.63201626 4.85024299 4.06817859 5.5625 8.5 C4.90100875 12.61594555 4.18533648 14.30471529 1 17 C-2.4375 17.625 -2.4375 17.625 -6 17 C-9.38677089 14.54999553 -10.78698584 13.13607554 -11.5625 9 C-10.87642343 5.34092496 -9.57265686 3.64832324 -7 1 C-4.35955695 -0.32022153 -2.93650531 -0.40974493 0 0 Z " fill="#EFAA29" transform="translate(559,190)"/>
<path d="M0 0 C3.38677089 2.45000447 4.78698584 3.86392446 5.5625 8 C4.84202557 11.8425303 3.99097304 13.45767292 1 16 C-4.01492456 16.79601977 -5.84415924 16.77842337 -10.0625 13.9375 C-12 11 -12 11 -12.0625 7.4375 C-10.00478792 0.7801962 -6.95655252 -1.09840303 0 0 Z " fill="#F4AF25" transform="translate(173,411)"/>
<path d="M0 0 C4.10703441 0.85563217 5.55401113 2.24378009 8 5.625 C8.79785988 10.09301531 8.51734028 11.87250505 5.9375 15.625 C3 17.625 3 17.625 -0.5625 17.6875 C-4.30475404 16.5308033 -5.85214665 15.88973709 -8 12.625 C-8.5625 9.1875 -8.5625 9.1875 -8 5.625 C-5.55401113 2.24378009 -4.10703441 0.85563217 0 0 Z " fill="#EFAA28" transform="translate(157,384.375)"/>
<path d="M0 0 C3 2.0625 3 2.0625 5 5 C5.06944397 8.95830645 4.5699479 11.14507816 2.375 14.4375 C-0.9617771 16.63274809 -3.08548544 16.55921637 -7 16 C-10.00342896 13.94502229 -10.83287356 12.52366286 -11.9375 9.0625 C-12.01221891 5.40127319 -11.21363944 3.8695326 -9 1 C-5.86128812 -0.56935594 -3.46144178 -0.35201103 0 0 Z " fill="#EDAA28" transform="translate(147,329)"/>
<path d="M0 0 C3.71317907 1.14770989 5.2692056 1.85342428 7.4375 5.0625 C7.92126933 8.93265465 7.73301985 11.84877221 5.4375 15.0625 C2.76116974 17.1440902 1.31996332 17.05837591 -2.125 16.9375 C-5.5625 16.0625 -5.5625 16.0625 -7.5 14.4375 C-9.0215889 11.03630129 -9.07999792 8.74967269 -8.5625 5.0625 C-5.90798953 1.20139386 -4.7398766 0.08315573 0 0 Z " fill="#F1AD28" transform="translate(145.5625,270.9375)"/>
<path d="M0 0 C2.56510573 1.68756956 3.7514063 2.86855016 4.41796875 5.90234375 C4.68638597 9.79802075 4.46215544 11.45628771 1.875 14.5 C-1.53285587 16.27801176 -3.21545532 16.70960213 -7 16 C-10.32878632 13.53959272 -11.79301948 12.10389613 -12.5625 8 C-11.87642343 4.34092496 -10.57265686 2.64832324 -8 0 C-5.02898609 -1.48550695 -3.16565278 -0.82306972 0 0 Z " fill="#EFAB2A" transform="translate(583,244)"/>
<path d="M0 0 C2.5625 2 2.5625 2 4 5 C4.29624457 8.90435149 3.8687506 11.9307685 1.375 15 C-1.97895713 16.41219248 -4.39845988 16.45019252 -8 16 C-10.95552697 13.97779734 -11.82481182 12.47403861 -13.0625 9.125 C-12.99147651 5.57382559 -12.11221796 3.7362936 -9.6640625 1.14453125 C-6.33947378 -1.14209902 -3.92174275 -0.68474873 0 0 Z " fill="#EFAB28" transform="translate(165,216)"/>
<path d="M0 0 C4.0743356 0.84881992 5.54405875 2.30225596 8 5.625 C8.71235686 9.4242366 8.31263988 11.06224821 6.4375 14.4375 C3.21466844 17.32978473 1.31192698 17.77629568 -3 17.625 C-5.9375 15.625 -5.9375 15.625 -8 12.625 C-8.625 9.125 -8.625 9.125 -8 5.625 C-5.55401113 2.24378009 -4.10703441 0.85563217 0 0 Z " fill="#F1AB27" transform="translate(174,189.375)"/>
<path d="M0 0 C3.71061573 1.21438333 5.29654188 1.87074365 7.4375 5.125 C8 8.5625 8 8.5625 7.4375 12.125 C4.99151113 15.50621991 3.54453441 16.89436783 -0.5625 17.75 C-4.6368356 16.90118008 -6.10655875 15.44774404 -8.5625 12.125 C-9.22653984 9.00401277 -9.12248087 7.23016048 -7.67578125 4.375 C-5.34598233 1.03123543 -4.0826238 0.14324996 0 0 Z " fill="#F4AF26" transform="translate(393.5625,84.875)"/>
<path d="M0 0 C4.10703441 0.85563217 5.55401113 2.24378009 8 5.625 C8.63127485 9.62307408 8.67917484 11.63235985 6.375 15 C3.47615008 16.98342363 1.5012527 17.47911447 -2 17.625 C-5.36056696 16.50481101 -5.96356066 15.67965901 -8 12.625 C-8.57061018 8.22315002 -8.50756062 6.32662792 -5.875 2.6875 C-3 0.625 -3 0.625 0 0 Z " fill="#F3AC25" transform="translate(142,299.375)"/>
<path d="M0 0 C2.5 1.5 2.5 1.5 4 4 C4.79669284 8.04985528 4.64099302 10.97441116 2.4375 14.5 C-0.99136114 16.61006839 -3.04220351 16.62491523 -7 16 C-9.9375 13.9375 -9.9375 13.9375 -12 11 C-12.62491523 7.04220351 -12.61006839 4.99136114 -10.5 1.5625 C-6.97441116 -0.64099302 -4.04985528 -0.79669284 0 0 Z " fill="#F3AF2B" transform="translate(589,272)"/>
<path d="M0 0 C3.4375 0.5625 3.4375 0.5625 5.875 2.0625 C8.07849302 5.58808884 8.23419284 8.51264472 7.4375 12.5625 C5.9375 15.0625 5.9375 15.0625 3.4375 16.5625 C0.62832139 17.16693392 -1.76007073 17.22290854 -4.5625 16.5625 C-7.55347304 14.02017292 -8.40452557 12.4050303 -9.125 8.5625 C-8.10942024 3.14607461 -5.36154281 0.84655939 0 0 Z " fill="#F2AC2D" transform="translate(539.5625,166.4375)"/>
<path d="M0 0 C3.74225404 1.1566967 5.28964665 1.79776291 7.4375 5.0625 C7.99671637 8.97701456 8.07024809 11.1007229 5.875 14.4375 C2.58257816 16.6324479 0.39580645 17.13194397 -3.5625 17.0625 C-6.5 15.0625 -6.5 15.0625 -8.5625 12.0625 C-9.36035988 7.59448469 -9.07984028 5.81499495 -6.5 2.0625 C-3.5625 0.0625 -3.5625 0.0625 0 0 Z " fill="#F4AD25" transform="translate(337.5625,84.9375)"/>
<path d="M0 0 C3.32878632 2.46040728 4.79301948 3.89610387 5.5625 8 C4.85564038 11.76991795 3.81831785 13.40418092 1 16 C-1.875 17.125 -1.875 17.125 -5 17 C-10.48398902 13.85178408 -10.48398902 13.85178408 -11.55078125 10.0234375 C-11.79555298 6.28892024 -11.29089893 4.34223403 -8.875 1.5 C-5.46714413 -0.27801176 -3.78454468 -0.70960213 0 0 Z " fill="#F9AE20" transform="translate(154,243)"/>
<path d="M0 0 C3.4375 0.5625 3.4375 0.5625 5.875 2.0625 C8.07578902 5.58376244 8.24164661 8.51689643 7.4375 12.5625 C5.875 15.0625 5.875 15.0625 3.4375 16.5625 C0 17.125 0 17.125 -3.5625 16.5625 C-6.94371991 14.11651113 -8.33186783 12.66953441 -9.1875 8.5625 C-8.06378731 3.1686791 -5.3834601 0.85002002 0 0 Z " fill="#F2AE29" transform="translate(474.5625,111.4375)"/>
<path d="M0 0 C2.12896949 1.59795632 2.89064102 2.5051506 3.46875 5.12109375 C3.52426701 9.23629217 3.54853806 11.30186066 0.9375 14.625 C-2.94881638 16.44412682 -4.9198368 16.26114135 -9 15 C-11.62595777 12.57603898 -12.79859706 11.00701471 -13.5 7.5 C-12.83157196 4.15785981 -11.3162448 2.45249449 -9 0 C-5.85000502 -1.57499749 -3.36459118 -0.70833498 0 0 Z " fill="#F4AE27" transform="translate(453,100)"/>
<path d="M0 0 C3.8425303 0.72047443 5.45767292 1.57152696 8 4.5625 C8.94237143 8.56143269 8.61136591 11.54355682 6.5 15.0625 C2.98105682 17.17386591 -0.00106731 17.50487143 -4 16.5625 C-6.99097304 14.02017292 -7.84202557 12.4050303 -8.5625 8.5625 C-7.62098494 3.54108633 -5.02141367 0.94151506 0 0 Z " fill="#F3A926" transform="translate(525,457.4375)"/>
<path d="M0 0 C1.90625 0.41015625 1.90625 0.41015625 4.40625 1.91015625 C6.52778384 5.44604598 6.697263 8.38917348 5.90625 12.41015625 C4.40625 14.91015625 4.40625 14.91015625 1.90625 16.41015625 C-0.90292861 17.01459017 -3.29132073 17.07056479 -6.09375 16.41015625 C-9.09368115 13.86021477 -9.94855459 12.28132869 -10.59375 8.41015625 C-9.51108588 1.91417151 -6.3325703 -0.46076538 0 0 Z " fill="#F3AF29" transform="translate(212.09375,145.58984375)"/>
<path d="M0 0 C2.4375 1.4375 2.4375 1.4375 4 4 C4.54355239 7.10441259 4.5698369 9.8982074 4 13 C2.4375 15.0625 2.4375 15.0625 0 16 C-3.88995066 16.48624383 -6.06205459 16.61706935 -9.375 14.4375 C-11.5699479 11.14507816 -12.06944397 8.95830645 -12 5 C-8.6643553 0.10077185 -5.80969012 -0.95067657 0 0 Z " fill="#F3AE26" transform="translate(285,100)"/>
<path d="M0 0 C2.1953125 1.203125 2.1953125 1.203125 4 3 C4.53125 5.375 4.53125 5.375 4.5 8 C4.5103125 8.86625 4.520625 9.7325 4.53125 10.625 C4 13 4 13 2.1875 14.78515625 C-1.04148769 16.57839763 -3.37421147 16.45322357 -7 16 C-10.00342896 13.94502229 -10.83287356 12.52366286 -11.9375 9.0625 C-12.01221891 5.40127319 -11.21363944 3.8695326 -9 1 C-5.94306678 -0.52846661 -3.37015453 -0.23242445 0 0 Z " fill="#F2B02A" transform="translate(189,435)"/>
<path d="M0 0 C1.90625 0.4140625 1.90625 0.4140625 4.40625 1.9765625 C6.51631839 5.40542364 6.53116523 7.45626601 5.90625 11.4140625 C3.46026113 14.79528241 2.01328441 16.18343033 -2.09375 17.0390625 C-6.1680856 16.19024258 -7.63780875 14.73680654 -10.09375 11.4140625 C-10.80335213 7.62951782 -10.37176176 5.94691837 -8.59375 2.5390625 C-5.55206021 -0.04637382 -3.89367767 -0.27604431 0 0 Z " fill="#F3AD27" transform="translate(545.09375,435.5859375)"/>
<path d="M0 0 C3.8425303 0.72047443 5.45767292 1.57152696 8 4.5625 C8.66017005 7.36391726 8.60984064 9.75493175 8 12.5625 C6.4375 15.0625 6.4375 15.0625 4 16.5625 C0.5625 17.125 0.5625 17.125 -3 16.5625 C-6.38121991 14.11651113 -7.76936783 12.66953441 -8.625 8.5625 C-7.58351809 3.56338683 -5.03644185 0.94433285 0 0 Z " fill="#F5AD26" transform="translate(581,357.4375)"/>
<path d="M0 0 C4.0743356 0.84881992 5.54405875 2.30225596 8 5.625 C8.70960213 9.40954468 8.27801176 11.09214413 6.5 14.5 C3.45831021 17.08543632 1.79992767 17.31510681 -2.09375 17.0390625 C-4 16.625 -4 16.625 -6.5 15.0625 C-8.61006839 11.63363886 -8.62491523 9.58279649 -8 5.625 C-5.55401113 2.24378009 -4.10703441 0.85563217 0 0 Z " fill="#EFAA28" transform="translate(586,328.375)"/>
<path d="M0 0 C3.4375 0.5625 3.4375 0.5625 5.875 2.125 C8.06771887 5.54564143 8.06757693 7.57201279 7.4375 11.5625 C4.99151113 14.94371991 3.54453441 16.33186783 -0.5625 17.1875 C-4.6368356 16.33868008 -6.10655875 14.88524404 -8.5625 11.5625 C-9.1875 8.5625 -9.1875 8.5625 -8.5625 5.5625 C-5.92388121 1.88442532 -4.50182231 0.71081405 0 0 Z " fill="#F5AE26" transform="translate(559.5625,411.4375)"/>
<path d="M0 0 C0.33 0 0.66 0 1 0 C1 3.63 1 7.26 1 11 C1.66 11.33 2.32 11.66 3 12 C1.07119658 15.40755272 -0.8276509 18.74147635 -3 22 C-0.69 20.02 1.62 18.04 4 16 C4.66 16.33 5.32 16.66 6 17 C-0.16806834 24.08715137 -7.7854181 28.80605193 -17 31 C-19.1640625 30.5390625 -19.1640625 30.5390625 -21 30 C-20.34773438 29.76925781 -19.69546875 29.53851563 -19.0234375 29.30078125 C-11.74461194 26.58464133 -6.34622396 24.15078496 -2.6875 16.9375 C-0.45953435 11.46465491 -0.19803641 5.85197592 0 0 Z " fill="#E4DFD5" transform="translate(359,413)"/>
<path d="M0 0 C0.66 0 1.32 0 2 0 C0.70530525 4.50819351 -1.01719687 7.80514225 -3.8125 11.5625 C-4.81216797 12.92568359 -4.81216797 12.92568359 -5.83203125 14.31640625 C-8.06106422 17.0755876 -10.44928554 19.53831571 -13 22 C-12.5520266 19.68547078 -12.09133539 17.37339961 -11.625 15.0625 C-11.36976563 13.77472656 -11.11453125 12.48695313 -10.8515625 11.16015625 C-10.57054687 10.11730469 -10.28953125 9.07445312 -10 8 C-9.34 7.67 -8.68 7.34 -8 7 C-7.34 7.33 -6.68 7.66 -6 8 C-6 6.68 -6 5.36 -6 4 C-4.02 3.67 -2.04 3.34 0 3 C0 2.01 0 1.02 0 0 Z " fill="#F7EDD7" transform="translate(532,407)"/>
<path d="M0 0 C0.99 0.66 1.98 1.32 3 2 C-0.05833533 5.08748796 -3.12238919 8.16923946 -6.1875 11.25 C-7.48397461 12.55904297 -7.48397461 12.55904297 -8.80664062 13.89453125 C-9.64775391 14.73886719 -10.48886719 15.58320313 -11.35546875 16.453125 C-12.12528076 17.22817383 -12.89509277 18.00322266 -13.68823242 18.80175781 C-16.02336095 21.02221375 -18.45594964 23.02457343 -21 25 C-21.66 24.67 -22.32 24.34 -23 24 C-15.52463837 15.79406201 -7.91983913 7.77952702 0 0 Z " fill="#D89F31" transform="translate(192,124)"/>
<path d="M0 0 C3.40357628 1.45867555 5.78825606 2.99834751 8 6 C8.77216042 11.79120312 7.76781704 15.07591723 4.95703125 20.1015625 C3.66561071 22.66331917 3.28354403 25.16455973 3 28 C2.67 28 2.34 28 2 28 C1.67 26.35 1.34 24.7 1 23 C0.34 23.66 -0.32 24.32 -1 25 C-3.625 25.125 -3.625 25.125 -6 25 C-5.29875 24.29875 -4.5975 23.5975 -3.875 22.875 C-3.42511719 22.41867187 -2.97523438 21.96234375 -2.51171875 21.4921875 C-1.47719819 20.47103284 -0.41538978 19.47699976 0.66796875 18.5078125 C4.135051 15.44956761 4.135051 15.44956761 5.375 11.125 C5.25125 10.42375 5.1275 9.7225 5 9 C5.66 9 6.32 9 7 9 C6.11388305 6.75427384 6.11388305 6.75427384 3.5 5.625 C1 4 1 4 0.1875 1.8125 C0.0946875 0.9153125 0.0946875 0.9153125 0 0 Z " fill="#F5F0E5" transform="translate(248,246)"/>
<path d="M0 0 C5.50551133 0.48937879 10.173196 2.05491917 15.33203125 4.01171875 C18.52073552 5.19289325 21.71619703 6.12431921 25 7 C25 7.33 25 7.66 25 8 C18.4 7.67 11.8 7.34 5 7 C5.33 5.35 5.66 3.7 6 2 C4.35 2 2.7 2 1 2 C0.67 1.34 0.34 0.68 0 0 Z " fill="#E6B134" transform="translate(301,516)"/>
<path d="M0 0 C5.39882424 4.59474404 10.71333087 9.27676273 16 14 C14 15 14 15 11.43359375 14.29296875 C10.44488281 13.92816406 9.45617187 13.56335938 8.4375 13.1875 C7.44621094 12.83042969 6.45492188 12.47335938 5.43359375 12.10546875 C3 11 3 11 2 9 C2.66 8.67 3.32 8.34 4 8 C3.71125 7.4225 3.4225 6.845 3.125 6.25 C2.08333333 4.16666667 1.04166667 2.08333333 0 0 Z " fill="#F7F0DD" transform="translate(400,241)"/>
<path d="M0 0 C0.66 0 1.32 0 2 0 C2.33 6.6 2.66 13.2 3 20 C1.68 20.33 0.36 20.66 -1 21 C-1.02888146 17.68751813 -1.04675799 14.37506833 -1.0625 11.0625 C-1.07087891 10.11697266 -1.07925781 9.17144531 -1.08789062 8.19726562 C-1.09111328 7.29814453 -1.09433594 6.39902344 -1.09765625 5.47265625 C-1.10289307 4.64000244 -1.10812988 3.80734863 -1.11352539 2.94946289 C-1 1 -1 1 0 0 Z " fill="#F8B020" transform="translate(90,515)"/>
<path d="M0 0 C1.83849947 2.70367569 1.99703118 4.16625394 1.9375 7.5 C1 11 1 11 -1.125 13.5 C-4.87393358 15.45596535 -6.974721 15.08372896 -11 14 C-11.33 13.34 -11.66 12.68 -12 12 C-9.02148438 11.70703125 -9.02148438 11.70703125 -6.04296875 11.4140625 C-3.70011858 11.07334609 -3.70011858 11.07334609 -1 9 C-0.49985047 6.54258463 -0.49985047 6.54258463 -1 4 C-2.39585785 2.18523997 -2.39585785 2.18523997 -4 1 C-2 0 -2 0 0 0 Z " fill="#F1B02D" transform="translate(576,218)"/>
<path d="M0 0 C0.33 0 0.66 0 1 0 C1.02502961 4.62239198 1.04301321 9.24474308 1.05493164 13.8671875 C1.059909 15.4342518 1.06669329 17.00131158 1.07543945 18.56835938 C1.12544049 27.76855053 0.99146255 36.83875192 0 46 C-0.33 46 -0.66 46 -1 46 C-1.495 38.575 -1.495 38.575 -2 31 C-1.67 31 -1.34 31 -1 31 C-0.67 20.77 -0.34 10.54 0 0 Z " fill="#745928" transform="translate(621,296)"/>
<path d="M0 0 C0.33 0 0.66 0 1 0 C1 5.61 1 11.22 1 17 C0.34 16.67 -0.32 16.34 -1 16 C-1.625 13.9375 -1.625 13.9375 -2 12 C-2.66 12 -3.32 12 -4 12 C-3.53439347 7.25081338 -2.83067342 3.89217595 0 0 Z " fill="#FAF1DE" transform="translate(206,256)"/>
<path d="M0 0 C-0.56589844 0.25394531 -1.13179688 0.50789062 -1.71484375 0.76953125 C-2.44832031 1.11371094 -3.18179687 1.45789063 -3.9375 1.8125 C-4.66839844 2.14894531 -5.39929688 2.48539063 -6.15234375 2.83203125 C-8.33029489 3.93600134 -8.33029489 3.93600134 -9 7 C-12.63 7 -16.26 7 -20 7 C-19.67 6.01 -19.34 5.02 -19 4 C-17.35766602 3.18457031 -17.35766602 3.18457031 -15.25390625 2.578125 C-14.49916016 2.35769531 -13.74441406 2.13726563 -12.96679688 1.91015625 C-12.17337891 1.69230469 -11.37996094 1.47445312 -10.5625 1.25 C-9.77294922 1.01667969 -8.98339844 0.78335938 -8.16992188 0.54296875 C-2.27251663 -1.13625832 -2.27251663 -1.13625832 0 0 Z " fill="#EAB33B" transform="translate(403,516)"/>
<path d="M0 0 C4.01686987 -0.46707789 5.56501812 -0.32150834 8.875 2.125 C11 5 11 5 11.5625 8 C10.85564038 11.76991795 9.81831785 13.40418092 7 16 C3.875 16.9375 3.875 16.9375 1 17 C0.34 16.34 -0.32 15.68 -1 15 C2.465 14.505 2.465 14.505 6 14 C7.07525194 11.34771188 8.09456151 8.71631546 9 6 C8.2884375 5.319375 8.2884375 5.319375 7.5625 4.625 C6 3 6 3 5 1 C3.35 1 1.7 1 0 1 C0 0.67 0 0.34 0 0 Z " fill="#E1AF3E" transform="translate(148,243)"/>
<path d="M0 0 C1.98 0.66 3.96 1.32 6 2 C6 2.99 6 3.98 6 5 C7.73161962 6.83736163 7.73161962 6.83736163 9.9375 8.5625 C13.9103139 11.8206278 13.9103139 11.8206278 15 14 C14.01 14.33 13.02 14.66 12 15 C7.02782124 10.3536679 3.05409511 6.10819022 0 0 Z " fill="#1D1C1B" transform="translate(397,235)"/>
<path d="M0 0 C0.99 0 1.98 0 3 0 C1.65070536 3.83663072 -0.07751025 6.65172569 -2.625 9.8125 C-3.25664063 10.60269531 -3.88828125 11.39289063 -4.5390625 12.20703125 C-5.02117188 12.79871094 -5.50328125 13.39039063 -6 14 C-6.66 12.68 -7.32 11.36 -8 10 C-7.21625 9.2575 -6.4325 8.515 -5.625 7.75 C-3.41420696 5.4339311 -2.22987985 3.86971966 -1 1 C-0.67 0.67 -0.34 0.34 0 0 Z " fill="#D09E2B" transform="translate(574,457)"/>
<path d="M0 0 C0.185625 0.8353125 0.185625 0.8353125 0.375 1.6875 C1.25541518 4.94503616 2.49201775 7.9840355 4 11 C6.32156597 11.40729228 8.6568787 11.74438677 11 12 C10.34 12.66 9.68 13.32 9 14 C4.86050342 13.92334266 2.68587224 13.5829914 -0.5 10.875 C-2.44891379 7.13958191 -2.00548746 5.02194985 -1 1 C-0.67 0.67 -0.34 0.34 0 0 Z " fill="#E1A733" transform="translate(565,388)"/>
<path d="M0 0 C-0.99 0 -1.98 0 -3 0 C-4.20628008 2.33214148 -5.1654738 4.49642139 -6 7 C-7.65 7.33 -9.3 7.66 -11 8 C-11.25 5.6875 -11.25 5.6875 -11 3 C-7.54679159 -0.33413226 -4.6014519 -1.4280368 0 0 Z " fill="#191917" transform="translate(228,357)"/>
<path d="M0 0 C2.4375 1.75 2.4375 1.75 4 4 C4.25 6.75 4.25 6.75 4 9 C0 5 0 5 -1.4375 3.25 C-3.62447555 1.50041956 -5.28272205 1.77968017 -8 2 C-8.33 2.66 -8.66 3.32 -9 4 C-9.66 4 -10.32 4 -11 4 C-8.41817305 -1.71690253 -5.98019891 -1.34038941 0 0 Z " fill="#ECB638" transform="translate(341,86)"/>
<path d="M0 0 C0.33 0.66 0.66 1.32 1 2 C1.66 2 2.32 2 3 2 C3.875 4.0625 3.875 4.0625 4 7 C2.26080867 9.59005725 0.19602066 11.79124879 -2 14 C-3.49341969 11.01316063 -2.40648676 9.04839022 -1.5625 5.875 C-1.27503906 4.77929688 -0.98757813 3.68359375 -0.69140625 2.5546875 C-0.46324219 1.71164062 -0.23507812 0.86859375 0 0 Z " fill="#DFD8C4" transform="translate(522,415)"/>
<path d="M0 0 C5.67114906 2.8934434 9.68756188 6.33365358 14 11 C13.67 11.66 13.34 12.32 13 13 C9.39017532 11.04874342 7.38922083 9.28517865 5 6 C4.113125 5.29875 3.22625 4.5975 2.3125 3.875 C1.549375 3.25625 0.78625 2.6375 0 2 C0 1.34 0 0.68 0 0 Z " fill="#F8F0E0" transform="translate(351,374)"/>
<path d="M0 0 C0.66 0.99 1.32 1.98 2 3 C0.625 4.5 0.625 4.5 -1 6 C-1.66 6 -2.32 6 -3 6 C-3.2165625 7.175625 -3.2165625 7.175625 -3.4375 8.375 C-4 11 -4 11 -5 13 C-4.34 13 -3.68 13 -3 13 C-3 13.66 -3 14.32 -3 15 C-4.32 15 -5.64 15 -7 15 C-6.68383092 8.83470299 -3.50784939 4.82731567 0 0 Z " fill="#E3AE33" transform="translate(219,532)"/>
<path d="M0 0 C2.84002513 5.68005026 2.51477705 10.94089179 1 17 C0.01 16.67 -0.98 16.34 -2 16 C-1.34 10.72 -0.68 5.44 0 0 Z " fill="#E5DECD" transform="translate(525,398)"/>
<path d="M0 0 C4.10169759 0.2366364 6.35989257 0.43990599 9.5 3.1875 C11.341294 6.63992625 11.03320308 8.29768896 10 12 C9.67 12 9.34 12 9 12 C9 10.35 9 8.7 9 7 C8.34 7 7.68 7 7 7 C5.29115995 5.37660195 3.62553283 3.70680947 2 2 C1.34 1.34 0.68 0.68 0 0 Z " fill="#DEAB3A" transform="translate(146,357)"/>
<path d="M0 0 C1.98 0 3.96 0 6 0 C6 0.66 6 1.32 6 2 C9.96 2.33 13.92 2.66 18 3 C17.67 3.66 17.34 4.32 17 5 C11.0163872 5.31492699 7.3285657 4.77085416 2 2 C1.34 1.34 0.68 0.68 0 0 Z " fill="#DCD5C6" transform="translate(227,398)"/>
<path d="M0 0 C0.66 0 1.32 0 2 0 C1.22602467 6.70778622 0.14231412 13.34574301 -1 20 C-1.33 20 -1.66 20 -2 20 C-3.13879395 15.09790683 -2.71241384 11.50063468 -1.5625 6.625 C-1.13130859 4.75714844 -1.13130859 4.75714844 -0.69140625 2.8515625 C-0.46324219 1.91054688 -0.23507813 0.96953125 0 0 Z " fill="#BE9537" transform="translate(115,255)"/>
<path d="M0 0 C-0.8353125 0.37125 -0.8353125 0.37125 -1.6875 0.75 C-4.50221471 2.27146741 -6.69885715 3.7610502 -9 6 C-9.88593998 9.13863704 -9.88593998 9.13863704 -10 12 C-12 10 -12 10 -12.4375 7.6875 C-11.297292 0.68336517 -6.32831157 -0.6204227 0 0 Z " fill="#E3AC36" transform="translate(285,100)"/>
<path d="M0 0 C3.53233755 1.17744585 3.86308075 1.95605641 5.6875 5.0625 C6.34298828 6.16271484 6.34298828 6.16271484 7.01171875 7.28515625 C7.33785156 7.85105469 7.66398437 8.41695313 8 9 C6.5199159 8.88637738 5.04089926 8.75877092 3.5625 8.625 C2.73878906 8.55539062 1.91507812 8.48578125 1.06640625 8.4140625 C0.38449219 8.27742188 -0.29742187 8.14078125 -1 8 C-1.33 7.34 -1.66 6.68 -2 6 C-0.68 5.34 0.64 4.68 2 4 C1.34 2.68 0.68 1.36 0 0 Z " fill="#E3DFD4" transform="translate(445,292)"/>
<path d="M0 0 C0.58203125 1.890625 0.58203125 1.890625 1 4 C-0.3125 5.75 -0.3125 5.75 -2 7 C-2.66 7 -3.32 7 -4 7 C-4 9.97 -4 12.94 -4 16 C-6 14 -6 14 -6.5 11.375 C-5.78290599 6.53461542 -3.11666715 3.65466327 0 0 Z " fill="#E0DBD1" transform="translate(229,274)"/>
<path d="M0 0 C0.33 0 0.66 0 1 0 C1 3.63 1 7.26 1 11 C1.66 11.33 2.32 11.66 3 12 C1.68 14.31 0.36 16.62 -1 19 C-1.99 19 -2.98 19 -4 19 C-3.525625 18.0925 -3.05125 17.185 -2.5625 16.25 C-0.30046762 11.07506744 -0.26533461 5.57202682 0 0 Z " fill="#C7C0B4" transform="translate(359,413)"/>
<path d="M0 0 C0 0.33 0 0.66 0 1 C-1.98 1.33 -3.96 1.66 -6 2 C-6.33 2.99 -6.66 3.98 -7 5 C-7.66 5 -8.32 5 -9 5 C-9 7.97 -9 10.94 -9 14 C-9.99 13.01 -10.98 12.02 -12 11 C-11.93024936 7.16371497 -11.51338864 4.77008296 -9.375 1.5625 C-6.16093309 -0.5520177 -3.76478675 -0.28959898 0 0 Z " fill="#CEA345" transform="translate(173,411)"/>
<path d="M0 0 C3.9760803 -0.46233492 5.56851204 -0.30954571 8.875 2.0625 C11.47048413 5.65037512 11.4247346 7.6677071 11 12 C10.01 12.495 10.01 12.495 9 13 C9 10.03 9 7.06 9 4 C5.7 3.34 2.4 2.68 -1 2 C-0.67 1.34 -0.34 0.68 0 0 Z " fill="#EAB946" transform="translate(139,300)"/>
<path d="M0 0 C1.97194115 1.97194115 2.832365 3.50904533 4 6 C4.33 6.66 4.66 7.32 5 8 C7.32156597 8.40729228 9.6568787 8.74438677 12 9 C11.67 9.66 11.34 10.32 11 11 C6.98313013 11.46707789 5.43498188 11.32150834 2.125 8.875 C-0.32150834 5.56501812 -0.46707789 4.01686987 0 0 Z " fill="#E0A933" transform="translate(385,91)"/>
<path d="M0 0 C0.66 0 1.32 0 2 0 C2.09038099 5.15171623 1.84681133 9.91913204 1 15 C0.34 14.67 -0.32 14.34 -1 14 C-1.18451025 4.58997722 -1.18451025 4.58997722 0 0 Z " fill="#AC8630" transform="translate(111,277)"/>
<path d="M0 0 C0.33 0 0.66 0 1 0 C1.0825 0.9075 1.165 1.815 1.25 2.75 C2.11079355 6.48010537 3.05133935 7.64107148 6 10 C8.13309192 11.23512079 8.13309192 11.23512079 10 12 C5.87203885 11.7618484 3.65367367 11.60339108 0.5625 8.75 C-1.11001719 5.80636975 -1.46113292 4.32015702 -1 1 C-0.67 0.67 -0.34 0.34 0 0 Z " fill="#D7A63A" transform="translate(441,104)"/>
<path d="M0 0 C0.33 0 0.66 0 1 0 C1 1.65 1 3.3 1 5 C3.31 4.34 5.62 3.68 8 3 C8 6.3 8 9.6 8 13 C6 10 6 10 6 6 C4.02 6 2.04 6 0 6 C0 4.02 0 2.04 0 0 Z " fill="#F7F4EA" transform="translate(216,360)"/>
<path d="M0 0 C-0.66 2.31 -1.32 4.62 -2 7 C-2.33 7 -2.66 7 -3 7 C-3 5.35 -3 3.7 -3 2 C-4.423125 2.2784375 -4.423125 2.2784375 -5.875 2.5625 C-9 3 -9 3 -11 2 C-11.33 2.66 -11.66 3.32 -12 4 C-12 3.01 -12 2.02 -12 1 C-8.0186217 -0.3271261 -4.14954773 -0.06915913 0 0 Z " fill="#C79933" transform="translate(97,505)"/>
<path d="M0 0 C3.65236803 -0.33975517 5.61672415 -0.20830209 8.875 1.5625 C11 4 11 4 11.3125 7.75 C11.1578125 9.35875 11.1578125 9.35875 11 11 C10.67 11 10.34 11 10 11 C10 9.35 10 7.7 10 6 C9.360625 5.731875 8.72125 5.46375 8.0625 5.1875 C6 4 6 4 5 1 C3.35 1 1.7 1 0 1 C0 0.67 0 0.34 0 0 Z " fill="#F2BD44" transform="translate(578,358)"/>
<path d="M0 0 C0.99 0.33 1.98 0.66 3 1 C3.90837763 3.47739354 4 5.33579484 4 8 C1.125 8.625 1.125 8.625 -2 9 C-2.66 8.34 -3.32 7.68 -4 7 C-2.35 6.67 -0.7 6.34 1 6 C0.67 4.02 0.34 2.04 0 0 Z " fill="#F5EBD2" transform="translate(443,290)"/>
<path d="M0 0 C0.66 0 1.32 0 2 0 C2.53341184 1.57914015 3.05125763 3.16354387 3.5625 4.75 C3.85253906 5.63171875 4.14257812 6.5134375 4.44140625 7.421875 C5.01697435 10.07834316 4.89248371 11.47031106 4 14 C3.67 14 3.34 14 3 14 C2.49307308 12.4188708 1.99473557 10.83498617 1.5 9.25 C1.2215625 8.36828125 0.943125 7.4865625 0.65625 6.578125 C0 4 0 4 0 0 Z " fill="#B79230" transform="translate(607,230)"/>
<path d="M0 0 C4.42857143 5.14285714 4.42857143 5.14285714 5 9 C4.01 9.33 3.02 9.66 2 10 C-1.07692308 5.69230769 -1.07692308 5.69230769 -0.6875 2.1875 C-0.460625 1.465625 -0.23375 0.74375 0 0 Z " fill="#CB9730" transform="translate(586,183)"/>
<path d="M0 0 C0.33 0 0.66 0 1 0 C1 2.31 1 4.62 1 7 C1.99 7 2.98 7 4 7 C4.2475 7.61875 4.495 8.2375 4.75 8.875 C6.20628639 11.35068687 7.37812506 11.95125002 10 13 C7.8125 13.3125 7.8125 13.3125 5 13 C1.71765822 10.46364499 0.22955938 8.83625203 -0.875 4.8125 C-1 2 -1 2 0 0 Z " fill="#D5A53A" transform="translate(183,171)"/>
<path d="M0 0 C1.68762851 1.6454378 3.3540349 3.31288577 5 5 C5 5.33 5 5.66 5 6 C6.65 6.33 8.3 6.66 10 7 C10.33 6.34 10.66 5.68 11 5 C11 5.99 11 6.98 11 8 C3.61195219 8.36334661 3.61195219 8.36334661 1 6.8125 C-0.30894168 4.44004321 -0.21620175 2.6664882 0 0 Z " fill="#F8B42F" transform="translate(518,466)"/>
<path d="M0 0 C3.38019657 1.44865567 5.73059668 3.08219573 8 6 C8.25 9.25 8.25 9.25 8 12 C7.01 11.01 6.02 10.02 5 9 C5.66 9 6.32 9 7 9 C6.11388305 6.75427384 6.11388305 6.75427384 3.5 5.625 C1 4 1 4 0.1875 1.8125 C0.125625 1.214375 0.06375 0.61625 0 0 Z " fill="#FAF4E8" transform="translate(248,246)"/>
<path d="M0 0 C0.66 0.33 1.32 0.66 2 1 C1.67 1.99 1.34 2.98 1 4 C0.2575 4.268125 -0.485 4.53625 -1.25 4.8125 C-5.04146115 6.44972186 -6.51450639 8.73335126 -9 12 C-9.33 11.01 -9.66 10.02 -10 9 C-8.71142987 7.68445979 -7.41904109 6.37265903 -6.125 5.0625 C-5.04605469 3.96615234 -5.04605469 3.96615234 -3.9453125 2.84765625 C-2 1 -2 1 0 0 Z " fill="#EFEDE6" transform="translate(281,251)"/>
<path d="M0 0 C0.66 0 1.32 0 2 0 C1.52797514 4.24822374 -0.96655518 6.19989709 -4 9 C-4.99 8.67 -5.98 8.34 -7 8 C-5.88200014 6.66079162 -4.75538103 5.32877444 -3.625 4 C-2.68527344 2.88625 -2.68527344 2.88625 -1.7265625 1.75 C-1.15679687 1.1725 -0.58703125 0.595 0 0 Z " fill="#19140E" transform="translate(182,154)"/>
<path d="M0 0 C0.33 1.32 0.66 2.64 1 4 C-1.31 5.98 -3.62 7.96 -6 10 C-6 6.36672806 -5.04413589 4.95264073 -3 2 C-2.01 1.34 -1.02 0.68 0 0 Z " fill="#171514" transform="translate(253,256)"/>
<path d="M0 0 C0.66 0 1.32 0 2 0 C1.35550393 3.01217112 0.34977818 5.51655836 -1.0625 8.25 C-1.42472656 8.95640625 -1.78695312 9.6628125 -2.16015625 10.390625 C-2.43730469 10.92171875 -2.71445313 11.4528125 -3 12 C-4.12297956 8.24877039 -3.72975914 6.55055823 -2 3 C-1.34 2.01 -0.68 1.02 0 0 Z " fill="#F2B535" transform="translate(153,190)"/>
<path d="M0 0 C3.28788824 3.11016455 5.83735988 6.01618925 8 10 C7.01 10.495 7.01 10.495 6 11 C4 9.1875 4 9.1875 2 7 C2 6.01 2 5.02 2 4 C1.34 4 0.68 4 0 4 C0 2.68 0 1.36 0 0 Z " fill="#D1A133" transform="translate(562,149)"/>
<path d="M0 0 C2.03476793 1.93677628 3.3852057 3.59644754 4.9375 6 C6.80596712 8.71777036 8.26364185 10.24091262 11 12 C8.23723823 11.47731534 5.6739124 10.89130413 3 10 C2.05078125 7.71484375 2.05078125 7.71484375 1.3125 4.9375 C1.06113281 4.01839844 0.80976563 3.09929687 0.55078125 2.15234375 C0.36902344 1.44207031 0.18726563 0.73179687 0 0 Z " fill="#F1ECE1" transform="translate(210,289)"/>
<path d="M0 0 C1.13643966 3.40931897 0.86747764 4.00335456 -0.4375 7.1875 C-0.72496094 7.90292969 -1.01242188 8.61835938 -1.30859375 9.35546875 C-1.53675781 9.89816406 -1.76492187 10.44085938 -2 11 C-3.125 9.375 -3.125 9.375 -4 7 C-3.25 3.8125 -3.25 3.8125 -2 1 C-1.34 0.67 -0.68 0.34 0 0 Z " fill="#F7BA35" transform="translate(136,228)"/>
<path d="M0 0 C0 0.66 0 1.32 0 2 C-4.67201205 3.20568053 -9.21496292 3.09382426 -14 3 C-9.11521152 0.50693368 -5.53108342 -0.12570644 0 0 Z " fill="#A9862E" transform="translate(316,63)"/>
<path d="M0 0 C3.25543229 0.34879632 4.01873107 1.02133261 6.25 3.5625 C6.8275 4.366875 7.405 5.17125 8 6 C7.01 6.33 6.02 6.66 5 7 C3.29115995 5.37660195 1.62553283 3.70680947 0 2 C0 1.34 0 0.68 0 0 Z " fill="#161515" transform="translate(404,243)"/>
<path d="M0 0 C1.8871875 0.061875 1.8871875 0.061875 3.8125 0.125 C2.8225 0.62 2.8225 0.62 1.8125 1.125 C2.1425 2.115 2.4725 3.105 2.8125 4.125 C-0.4875 3.465 -3.7875 2.805 -7.1875 2.125 C-4.09861478 0.06574319 -3.47814073 -0.1140374 0 0 Z " fill="#2D2B27" transform="translate(359.1875,243.875)"/>
<path d="M0 0 C2.45706557 2.17181258 2.96315081 2.63887791 3.3125 6.0625 C3 9 3 9 1 11 C-0.20272819 8.59454362 -0.10071472 7.05003047 -0.0625 4.375 C-0.05347656 3.55773437 -0.04445312 2.74046875 -0.03515625 1.8984375 C-0.02355469 1.27195313 -0.01195312 0.64546875 0 0 Z " fill="#F2B638" transform="translate(196,169)"/>
<path d="M0 0 C-1.29299694 2.88437779 -2.65941363 4.87219421 -5 7 C-5.99 6.67 -6.98 6.34 -8 6 C-3.38461538 0 -3.38461538 0 0 0 Z " fill="#FAB833" transform="translate(209,126)"/>
<path d="M0 0 C1.85776765 3.13498292 2.20140476 5.37471432 2 9 C1.01 9.495 1.01 9.495 0 10 C-0.103125 9.071875 -0.20625 8.14375 -0.3125 7.1875 C-1.0070192 3.96745642 -1.47740939 2.97420135 -4 1 C-2 0 -2 0 0 0 Z " fill="#E4AF37" transform="translate(576,218)"/>
<path d="M0 0 C2 1 2 1 3.3125 3 C5.41386347 5.49050485 6.82908867 5.65719878 10 6 C10 6.33 10 6.66 10 7 C3.56461405 7.36426713 3.56461405 7.36426713 1.0625 5.75 C0 4 0 4 0 0 Z " fill="#F9BA36" transform="translate(532,176)"/>
<path d="M0 0 C0 1.66666667 0 3.33333333 0 5 C-1.95927063 6.7143618 -3.95880212 8.38405168 -6 10 C-6.66 9.67 -7.32 9.34 -8 9 C-5.36 6.03 -2.72 3.06 0 0 Z " fill="#19130B" transform="translate(193,142)"/>
<path d="M0 0 C0.66 0.33 1.32 0.66 2 1 C-0.62652025 4.59930552 -2.93963643 7.07666989 -7 9 C-7.66 8.67 -8.32 8.34 -9 8 C-6.03 5.36 -3.06 2.72 0 0 Z " fill="#B28A36" transform="translate(202,115)"/>
<path d="M0 0 C0 0.33 0 0.66 0 1 C-1.11375 1.12375 -2.2275 1.2475 -3.375 1.375 C-7.03103677 1.6465813 -7.03103677 1.6465813 -9 4 C-9.66 4 -10.32 4 -11 4 C-8.36255031 -1.84006718 -6.04918208 -1.00819701 0 0 Z " fill="#E1AD42" transform="translate(313,92)"/>
<path d="M0 0 C1.98 0.66 3.96 1.32 6 2 C3.08235 3.9451 1.37462715 4.45276317 -2 5 C-1.34 3.35 -0.68 1.7 0 0 Z " fill="#C29325" transform="translate(684,525)"/>
<path d="M0 0 C2.93200474 2.85276137 5.64315404 5.65079784 8 9 C5.625 8.8125 5.625 8.8125 3 8 C1.75 5.625 1.75 5.625 1 3 C0.67 2.01 0.34 1.02 0 0 Z " fill="#E6B440" transform="translate(169,456)"/>
<path d="M0 0 C0.99 0.66 1.98 1.32 3 2 C2.071875 2.598125 1.14375 3.19625 0.1875 3.8125 C-2.20254718 5.45272845 -4.08470253 6.8718917 -6 9 C-6.66 8.67 -7.32 8.34 -8 8 C-5.36 5.36 -2.72 2.72 0 0 Z " fill="#E7E1D3" transform="translate(287,381)"/>
<path d="M0 0 C3.7952131 1.49097658 5.61042731 3.75700849 8 7 C5 7 5 7 2.3125 4.625 C0 2 0 2 0 0 Z " fill="#D8D3CA" transform="translate(443,303)"/>
<path d="M0 0 C0.66 0.33 1.32 0.66 2 1 C0.66667905 4.99996286 -1.4957827 5.83782337 -5 8 C-5.33 7.01 -5.66 6.02 -6 5 C-5.01 4.67 -4.02 4.34 -3 4 C-1.31461399 2.00334686 -1.31461399 2.00334686 0 0 Z " fill="#E8AE36" transform="translate(214,120)"/>
<path d="M0 0 C0 3.16880694 -0.2058242 4.43689172 -2 7 C-4.625 7.75 -4.625 7.75 -7 8 C-6.02133662 6.85373678 -5.04205413 5.70800212 -4.0625 4.5625 C-3.51722656 3.92441406 -2.97195313 3.28632813 -2.41015625 2.62890625 C-1.63204305 1.73008851 -0.84063472 0.84063472 0 0 Z " fill="#E1AC3A" transform="translate(543,478)"/>
<path d="M0 0 C0.66 0 1.32 0 2 0 C1.65120368 3.25543229 0.97866739 4.01873107 -1.5625 6.25 C-2.366875 6.8275 -3.17125 7.405 -4 8 C-4 4.06830895 -2.60580385 2.83572772 0 0 Z " fill="#FCBC36" transform="translate(182,150)"/>
<path d="M0 0 C0.99 0 1.98 0 3 0 C3 2.64 3 5.28 3 8 C2.67 7.01 2.34 6.02 2 5 C1.34 5 0.68 5 0 5 C-0.5625 3.0625 -0.5625 3.0625 -1 1 C-0.67 0.67 -0.34 0.34 0 0 Z " fill="#FBB428" transform="translate(91,507)"/>
<path d="M0 0 C5.41538462 -0.36923077 5.41538462 -0.36923077 8.375 1.5 C8.91125 1.995 9.4475 2.49 10 3 C9.67 3.66 9.34 4.32 9 5 C7.68 4.34 6.36 3.68 5 3 C5 2.34 5 1.68 5 1 C3.35 1 1.7 1 0 1 C0 0.67 0 0.34 0 0 Z " fill="#F4B93D" transform="translate(522,458)"/>
<path d="M0 0 C2.8125 -0.25 2.8125 -0.25 6 0 C7.875 2 7.875 2 9 4 C4.545 3.01 4.545 3.01 0 2 C0 1.34 0 0.68 0 0 Z " fill="#E1DCD4" transform="translate(407,252)"/>
<path d="M0 0 C0.99 0 1.98 0 3 0 C1.7508258 3.45925163 0.32472205 6.14693203 -2 9 C-1.125 1.125 -1.125 1.125 0 0 Z " fill="#DDAF3B" transform="translate(204,531)"/>
<path d="M0 0 C-0.33 0.99 -0.66 1.98 -1 3 C-4.3 3 -7.6 3 -11 3 C-11 2.67 -11 2.34 -11 2 C-9.5422647 1.664061 -8.08378894 1.33133376 -6.625 1 C-5.40683594 0.7215625 -5.40683594 0.7215625 -4.1640625 0.4375 C-2 0 -2 0 0 0 Z " fill="#E3B937" transform="translate(382,521)"/>
<path d="M0 0 C0.33 0 0.66 0 1 0 C1.125 3.375 1.125 3.375 1 7 C0.34 7.66 -0.32 8.32 -1 9 C-1.80967438 6.08517222 -2.21845993 4.53886783 -1.0625 1.6875 C-0.711875 1.130625 -0.36125 0.57375 0 0 Z " fill="#EDB134" transform="translate(550,440)"/>
<path d="M0 0 C0.99 0.33 1.98 0.66 3 1 C2.42655063 3.86724686 2.1385485 4.8614515 0 7 C-0.38133299 5.0085944 -0.71325582 3.00720923 -1 1 C-0.67 0.67 -0.34 0.34 0 0 Z " fill="#CD982E" transform="translate(594,421)"/>
<path d="M0 0 C3.465 1.98 3.465 1.98 7 4 C6.67 4.99 6.34 5.98 6 7 C3.00675737 5.9024777 2.15389099 5.32317108 0.75 2.375 C0.5025 1.59125 0.255 0.8075 0 0 Z " fill="#F2ECDD" transform="translate(205,389)"/>
<path d="M0 0 C0.20625 0.61875 0.4125 1.2375 0.625 1.875 C2.54775888 4.84653645 4.66594527 5.13024659 8 6 C8 6.33 8 6.66 8 7 C1.25 6.25 1.25 6.25 -1 4 C-0.625 1.875 -0.625 1.875 0 0 Z " fill="#DBA839" transform="translate(139,281)"/>
<path d="M0 0 C0.33 0 0.66 0 1 0 C1 1.65 1 3.3 1 5 C1.66 5 2.32 5 3 5 C3.33 6.32 3.66 7.64 4 9 C3.01 9 2.02 9 1 9 C-0.4783226 6.04335481 -0.06032783 3.25770263 0 0 Z " fill="#33312E" transform="translate(281,256)"/>
<path d="M0 0 C0.66 0.33 1.32 0.66 2 1 C1.67 1.99 1.34 2.98 1 4 C0.34 4 -0.32 4 -1 4 C-1.33 6.31 -1.66 8.62 -2 11 C-2.33 11 -2.66 11 -3 11 C-3.36923077 3.49230769 -3.36923077 3.49230769 -1.5 1 C-1.005 0.67 -0.51 0.34 0 0 Z " fill="#EDB63D" transform="translate(146,244)"/>
<path d="M0 0 C4.43458973 1.3937282 6.87378374 3.60582235 10 7 C6.433255 7 5.89456323 6.36308045 3.3125 4.0625 C2.68988281 3.51722656 2.06726563 2.97195312 1.42578125 2.41015625 C0.95527344 1.94480469 0.48476563 1.47945312 0 1 C0 0.67 0 0.34 0 0 Z " fill="#E0DDD5" transform="translate(293,235)"/>
<path d="M0 0 C1.32 0.66 2.64 1.32 4 2 C4 3.98 4 5.96 4 8 C0 3.375 0 3.375 0 0 Z " fill="#F4B835" transform="translate(563,414)"/>
<path d="M0 0 C0.33 0.99 0.66 1.98 1 3 C1.66 3.33 2.32 3.66 3 4 C0.36 4.33 -2.28 4.66 -5 5 C-4.34 4.01 -3.68 3.02 -3 2 C-2.01 2 -1.02 2 0 2 C0 1.34 0 0.68 0 0 Z " fill="#030302" transform="translate(269,316)"/>
<path d="M0 0 C0.66 0.33 1.32 0.66 2 1 C1.34 2.98 0.68 4.96 0 7 C-1.32 6.67 -2.64 6.34 -4 6 C-3.525625 5.566875 -3.05125 5.13375 -2.5625 4.6875 C-0.76313043 2.97690387 -0.76313043 2.97690387 0 0 Z " fill="#E0DCD5" transform="translate(254,257)"/>
<path d="M0 0 C0.33 0 0.66 0 1 0 C1.33 2.64 1.66 5.28 2 8 C1.01 8.33 0.02 8.66 -1 9 C-0.67 6.03 -0.34 3.06 0 0 Z " fill="#B78A29" transform="translate(615,255)"/>
<path d="M0 0 C1.32 0.33 2.64 0.66 4 1 C4 1.66 4 2.32 4 3 C1.39417629 3.93065133 0.35801776 4.14917407 -2.25 3.0625 C-2.8275 2.711875 -3.405 2.36125 -4 2 C-2.68 2 -1.36 2 0 2 C0 1.34 0 0.68 0 0 Z " fill="#F4EAD2" transform="translate(251,252)"/>
<path d="M0 0 C0.99 0.66 1.98 1.32 3 2 C3.1875 5.625 3.1875 5.625 3 9 C2.67 9 2.34 9 2 9 C2 7.35 2 5.7 2 4 C0.68 3.34 -0.64 2.68 -2 2 C-1.34 1.34 -0.68 0.68 0 0 Z " fill="#F8C13C" transform="translate(260,114)"/>
<path d="M0 0 C0.66 0.66 1.32 1.32 2 2 C-0.475 3.485 -0.475 3.485 -3 5 C-1.125 1.125 -1.125 1.125 0 0 Z " fill="#080907" transform="translate(546,499)"/>
<path d="" fill="#090A0A" transform="translate(0,0)"/>
<path d="" fill="#080808" transform="translate(0,0)"/>
</svg>
